<?xml version="1.0" standalone="no"?>
<!DOCTYPE svg PUBLIC "-//W3C//DTD SVG 20010904//EN"
 "http://www.w3.org/TR/2001/REC-SVG-20010904/DTD/svg10.dtd">
<svg version="1.0" xmlns="http://www.w3.org/2000/svg"
 width="2187.000000pt" height="2599.000000pt" viewBox="0 0 2187.000000 2599.000000"
 preserveAspectRatio="xMidYMid meet">

<g transform="translate(0.000000,2599.000000) scale(0.100000,-0.100000)"
fill="#000000" stroke="none">
<path d="M11000 18065 c-85 -13 -172 -24 -192 -24 -21 -1 -38 -5 -38 -11 0 -5
-10 -10 -22 -10 -13 0 -36 -7 -51 -15 -39 -20 -97 -30 -97 -16 0 6 7 11 15 11
8 0 15 5 15 10 0 13 -31 -2 -49 -24 -8 -9 -18 -13 -23 -10 -5 3 -26 -7 -46
-24 -21 -16 -48 -33 -62 -37 -45 -14 -109 -60 -121 -87 -8 -19 -18 -27 -33
-25 -16 1 -26 -8 -41 -38 -11 -22 -41 -63 -67 -90 -44 -47 -69 -86 -82 -128
-3 -9 -16 -22 -28 -27 -13 -5 -54 -36 -92 -67 -61 -52 -76 -71 -108 -135 -11
-23 -10 -52 2 -64 6 -6 6 -21 1 -39 -5 -17 -10 -25 -11 -20 -3 21 -49 -122
-55 -170 -6 -47 -38 -105 -51 -92 -4 3 -10 21 -15 39 -6 25 -7 20 -3 -20 5
-39 2 -58 -9 -70 -8 -9 -17 -29 -21 -43 -3 -15 -22 -39 -41 -54 -31 -23 -34
-29 -21 -38 13 -10 9 -19 -28 -62 -24 -27 -52 -50 -62 -50 -11 0 -20 -9 -22
-20 -2 -11 -15 -31 -27 -45 -15 -15 -26 -43 -30 -70 l-6 -45 18 42 c10 24 26
51 36 60 16 16 17 16 17 -9 0 -14 7 -45 15 -68 13 -37 13 -56 4 -127 -7 -45
-15 -83 -19 -83 -4 0 -13 -19 -20 -41 l-14 -42 -12 34 -12 34 1 -33 c0 -18 4
-35 9 -38 17 -11 7 -25 -27 -40 -43 -18 -50 -62 -19 -122 25 -49 18 -66 -51
-123 -60 -50 -76 -69 -57 -69 4 0 33 25 65 55 32 31 62 53 68 50 14 -9 11 -73
-5 -103 -8 -15 -19 -40 -25 -55 -8 -20 -29 -36 -73 -57 -34 -16 -64 -28 -66
-26 -2 3 1 15 8 28 9 19 9 20 -2 6 -7 -9 -18 -25 -25 -35 -10 -15 -12 -11 -13
32 l-1 50 -25 -85 c-14 -47 -28 -112 -30 -145 -5 -55 -3 -64 27 -110 18 -27
43 -62 57 -77 15 -16 22 -33 18 -43 -5 -13 -1 -15 14 -10 18 6 20 3 15 -17 -3
-13 -9 -50 -13 -83 -5 -33 -12 -59 -17 -58 -6 1 -10 -14 -11 -32 0 -18 -8 -40
-16 -49 -20 -19 -54 -21 -61 -3 -3 7 -6 5 -6 -5 -1 -12 -9 -18 -25 -18 -35 0
-43 -33 -16 -68 l22 -27 -4 35 c-2 26 1 35 12 35 8 0 14 -6 13 -12 -4 -20 13
-15 29 9 18 27 68 19 68 -12 0 -13 7 -20 20 -20 27 0 25 -16 -5 -42 -21 -18
-25 -31 -25 -72 0 -35 -7 -62 -22 -86 l-22 -35 -7 35 c-3 19 -7 28 -8 20 -1
-11 -4 -11 -13 -2 -19 19 -23 15 -24 -31 -1 -35 -28 -139 -51 -197 -5 -11 -1
-11 20 3 35 23 44 21 43 -5 -1 -15 -13 -30 -35 -43 -34 -20 -43 -43 -15 -37
11 2 13 -3 8 -22 -3 -13 -1 -33 5 -43 9 -15 10 -13 11 14 0 17 5 35 10 38 6 3
10 0 10 -8 0 -8 7 -28 15 -43 17 -33 20 -64 5 -64 -5 0 -10 9 -10 21 0 24 -18
16 -29 -14 -6 -16 -3 -24 12 -32 11 -5 25 -18 31 -28 16 -26 -16 -47 -70 -47
-41 0 -75 -19 -37 -21 14 0 15 -2 3 -7 -20 -9 -24 -32 -5 -32 10 0 15 -10 15
-31 0 -22 5 -32 20 -36 24 -6 24 -6 5 -43 -14 -28 -13 -34 8 -31 4 1 16 -3 27
-9 17 -9 18 -14 8 -38 -6 -15 -20 -35 -31 -44 -19 -18 -19 -18 2 -18 15 0 21
-6 21 -24 0 -13 7 -29 15 -36 21 -18 19 -41 -5 -47 -16 -4 -19 -10 -14 -27 4
-11 5 -39 3 -61 -8 -74 0 -254 11 -276 8 -15 9 -19 1 -15 -18 11 -13 -26 10
-73 11 -24 18 -48 16 -54 -8 -22 14 -151 28 -161 7 -6 15 -20 17 -30 1 -11 17
-27 33 -36 27 -15 30 -22 29 -65 0 -33 -5 -50 -17 -57 -9 -5 -17 -16 -17 -24
0 -28 -25 -9 -45 34 -21 45 -41 51 -38 11 1 -13 0 -17 -3 -8 -5 15 -84 49
-115 49 -29 0 -49 -34 -49 -83 0 -47 -21 -87 -47 -87 -21 0 -35 -40 -28 -79 4
-20 8 -63 10 -96 4 -86 4 -85 20 -85 21 0 19 -30 -2 -30 -17 -1 -17 -2 1 -15
13 -10 16 -20 11 -32 -4 -10 -9 -77 -11 -150 -3 -73 -8 -142 -13 -155 -4 -13
-6 -49 -3 -81 3 -38 -1 -72 -11 -100 -17 -47 -31 -344 -17 -349 12 -4 16 -424
6 -506 -4 -34 -12 -65 -17 -68 -6 -3 -7 -14 -4 -24 3 -10 2 -21 -4 -24 -5 -4
-5 -20 1 -43 5 -21 9 -42 8 -48 0 -5 -3 -44 -6 -85 -4 -41 -11 -80 -16 -87 -5
-7 -7 -21 -3 -33 4 -12 2 -26 -3 -33 -18 -22 -28 -194 -16 -279 3 -29 2 -48
-4 -48 -5 0 -7 -28 -5 -67 2 -38 4 -99 4 -138 1 -94 18 -234 31 -259 7 -12 13
-74 13 -141 1 -66 6 -150 10 -187 7 -63 7 -68 -13 -75 -20 -8 -21 -10 -6 -37
19 -39 11 -60 -21 -54 -20 4 -25 1 -25 -16 0 -12 9 -25 22 -31 26 -12 36 -35
14 -35 -8 0 -25 14 -38 30 -25 35 -48 39 -55 10 -3 -11 -9 -20 -14 -20 -14 0
-10 -13 12 -39 23 -28 36 -22 19 8 -13 26 -9 26 18 2 23 -20 29 -46 12 -56 -6
-4 -7 -11 -4 -17 10 -15 -54 -161 -67 -152 -4 2 -13 -3 -20 -12 -11 -13 -19
-83 -23 -211 -1 -17 -3 -30 -6 -28 -3 2 -12 0 -20 -5 -11 -7 -11 -11 -1 -24
10 -12 10 -26 0 -71 -7 -30 -16 -55 -20 -55 -5 0 -11 -17 -15 -37 -4 -22 -18
-48 -33 -60 -20 -18 -22 -23 -9 -23 27 0 32 -20 9 -41 -12 -11 -21 -31 -21
-44 0 -14 -6 -25 -13 -25 -9 0 -11 -14 -7 -47 l4 -48 7 45 c5 41 6 38 7 -25 1
-41 -2 -65 -7 -57 -6 11 -13 8 -29 -12 -11 -14 -27 -26 -36 -26 -13 0 -16 -11
-15 -52 0 -29 3 -47 6 -40 4 10 8 10 19 1 17 -14 18 -41 2 -57 -9 -9 -9 -12 0
-12 7 0 12 -16 12 -40 0 -29 -4 -40 -15 -40 -9 0 -15 9 -15 25 0 18 -7 26 -27
32 -16 4 -34 6 -40 5 -7 -2 -13 2 -13 8 0 5 5 10 11 10 6 0 9 10 7 23 -2 16
-9 21 -25 19 -22 -3 -23 0 -23 55 0 41 -8 74 -25 111 -14 30 -25 61 -25 69 0
9 -8 22 -17 29 -17 13 -17 13 0 14 12 0 17 8 17 28 0 21 -7 31 -27 39 l-28 11
28 1 c23 1 27 5 27 31 0 26 -4 30 -26 30 -38 0 -64 -18 -63 -43 0 -12 3 -16 6
-9 7 17 23 15 23 -3 0 -8 -4 -15 -9 -15 -16 0 -22 -33 -27 -150 -3 -63 -8
-151 -10 -195 -3 -44 -6 -165 -8 -270 -1 -121 -6 -206 -15 -234 -10 -35 -10
-65 -2 -140 6 -53 10 -107 9 -121 -1 -14 2 -55 6 -92 6 -50 4 -68 -4 -68 -8 0
-10 -17 -5 -57 6 -61 11 -142 18 -285 2 -64 8 -92 20 -106 13 -14 15 -25 8
-48 -5 -16 -17 -67 -28 -114 -10 -47 -26 -93 -35 -102 -41 -41 -125 -2 -161
73 -16 34 -18 73 -17 448 0 226 3 424 6 440 3 15 2 31 -4 35 -15 9 -1209 7
-1275 -3 -42 -5 -62 -14 -73 -29 -8 -12 -24 -22 -34 -22 -18 0 -19 -19 -23
-463 -4 -443 -10 -539 -42 -711 -4 -24 -3 -27 10 -16 8 7 15 19 15 26 0 8 4
14 9 14 5 0 10 -35 12 -78 5 -102 14 -112 94 -112 l62 0 -4 -47 -4 -48 91 -69
c146 -110 266 -193 390 -271 122 -76 349 -205 362 -205 5 0 8 142 8 315 0 293
1 315 18 317 9 1 64 2 122 3 58 0 134 2 168 3 l64 2 -3 38 c-1 20 -1 43 0 50
2 20 21 4 21 -18 0 -13 5 -17 20 -13 14 4 22 -1 29 -20 9 -22 36 -40 66 -42
27 -3 55 -18 55 -31 0 -12 7 -13 38 -7 54 12 246 10 250 -2 1 -6 -51 -17 -120
-26 -131 -17 -219 -39 -280 -70 -26 -13 -65 -21 -121 -23 -89 -4 -133 -20
-154 -58 -18 -33 -16 -72 5 -91 25 -23 46 -21 66 6 16 21 17 18 11 -61 -4 -66
-3 -83 7 -80 7 3 14 21 16 41 2 20 7 37 13 37 12 0 12 -67 -1 -75 -13 -8 -13
-65 -1 -65 10 0 26 45 35 101 8 44 19 54 68 63 28 5 45 2 65 -11 16 -11 37
-24 48 -29 24 -14 36 -60 35 -144 -1 -58 -4 -67 -27 -86 -39 -31 -45 -105 -18
-230 4 -16 25 -29 92 -53 49 -17 102 -36 118 -42 94 -34 429 -126 596 -163 26
-6 26 -5 21 39 -5 52 8 75 44 75 31 0 64 -52 64 -101 0 -41 -24 -34 205 -65
136 -18 448 -44 455 -38 2 3 3 21 1 40 -3 35 20 84 39 84 6 0 25 -29 42 -65
l32 -65 148 0 c117 0 148 3 148 13 0 22 34 47 64 47 17 0 39 -11 58 -30 29
-30 30 -30 144 -30 93 0 114 3 114 15 0 39 80 46 108 10 19 -24 24 -25 131
-25 l111 0 0 33 c0 42 26 67 68 67 35 0 72 -39 72 -76 l0 -24 225 0 225 0 6
39 c3 21 10 44 15 52 15 25 32 -6 27 -50 l-4 -41 231 0 c222 0 504 18 689 43
l89 12 2 35 c7 80 99 95 99 15 0 -33 2 -35 26 -31 14 3 52 10 85 16 115 20
210 49 220 67 6 9 22 30 37 45 14 15 24 28 21 28 -3 0 5 10 19 23 21 20 26 36
34 118 8 91 7 329 -2 339 -3 2 -9 -2 -14 -10 -7 -10 -9 11 -9 63 1 59 5 77 15
77 8 0 14 7 14 15 0 8 -7 15 -15 15 -22 0 -18 34 8 62 37 40 52 75 39 91 -7 8
-9 17 -5 21 22 22 36 299 22 426 -10 87 -9 96 8 110 10 8 19 26 20 40 1 14 6
54 12 90 6 39 6 71 0 82 -12 23 -12 91 1 83 15 -9 34 45 20 59 -7 7 -10 5 -10
-8 0 -9 -4 -15 -10 -11 -5 3 -9 29 -9 58 1 29 -4 88 -10 132 -6 44 -11 96 -11
115 0 19 -2 56 -6 81 -3 28 -1 56 5 68 7 12 8 21 3 21 -13 0 -32 71 -32 118 0
22 -5 42 -11 44 -6 2 -13 26 -15 53 -7 98 -13 127 -28 144 -17 18 -21 41 -8
41 4 0 7 35 6 78 -2 154 -3 162 -19 162 -11 0 -15 11 -15 36 0 21 4 33 10 29
6 -3 10 -2 10 2 0 5 -9 14 -20 21 -11 7 -20 23 -20 37 0 14 -4 25 -10 25 -5 0
-10 14 -10 31 0 20 4 28 11 23 9 -5 10 6 7 40 -3 25 -2 46 3 46 15 0 10 20
-16 58 -26 37 -33 86 -15 97 6 3 10 1 10 -6 0 -9 3 -10 11 -2 15 15 25 123 10
123 -6 0 -11 15 -11 33 0 17 -7 52 -16 77 -19 53 -22 98 -11 163 7 39 6 47 -7
47 -9 0 -16 -12 -19 -32 -2 -18 -2 10 1 62 3 52 8 97 12 100 18 12 20 48 4 61
-10 8 -20 13 -23 12 -3 -2 -6 5 -6 15 -2 43 -26 102 -44 102 -13 0 -20 14 -30
64 -7 36 -19 73 -27 83 -7 10 -14 26 -14 36 0 11 -6 31 -14 45 -8 15 -18 36
-22 47 -33 92 -42 121 -37 128 3 5 -5 19 -17 32 -17 18 -22 36 -22 74 0 28 -5
51 -10 51 -12 0 1 298 17 390 3 19 8 94 11 165 2 72 6 144 10 160 3 17 10 68
15 115 5 47 13 108 18 135 6 28 10 75 10 106 1 34 6 61 14 68 30 24 38 138 30
421 -3 151 -5 327 -4 390 2 63 3 166 2 228 -2 113 -2 113 29 148 32 37 36 49
20 59 -16 10 -11 48 9 74 13 17 28 24 49 23 44 -1 50 41 16 112 -23 48 -29 55
-55 54 -58 -2 -92 70 -54 112 13 15 12 24 -9 86 -13 38 -40 106 -60 151 -20
45 -36 86 -36 93 0 6 -10 32 -21 58 -12 26 -32 71 -45 100 -31 67 -30 85 3
118 26 26 26 27 5 22 -20 -6 -22 -2 -22 31 0 20 -7 46 -15 58 -14 19 -13 25
10 65 14 23 25 52 25 62 0 11 7 27 15 37 21 23 12 57 -28 99 l-32 34 3 192 4
192 -26 39 -26 38 24 3 c20 3 24 8 24 40 0 34 6 75 19 112 4 12 7 12 19 -4 8
-11 14 -16 14 -10 -1 14 -22 37 -48 52 -18 10 -22 10 -22 -3 0 -10 -9 -14 -30
-11 -17 2 -33 0 -36 -5 -16 -26 -89 5 -105 43 -9 23 -8 33 5 52 8 14 24 27 34
30 22 7 42 59 42 109 0 42 20 51 21 10 1 -27 1 -27 10 5 11 37 46 56 85 46 20
-5 23 -11 18 -33 -4 -20 -3 -23 5 -11 15 21 14 43 -5 107 -19 64 -26 66 -14 5
8 -45 -2 -64 -19 -35 -6 10 -11 12 -11 6 0 -19 -37 -16 -44 3 -3 9 -3 20 0 26
4 5 1 21 -7 34 -14 26 -4 48 11 24 8 -13 10 -12 10 3 0 10 8 21 18 24 9 4 20
11 24 17 5 8 8 7 8 -1 0 -6 9 -9 21 -6 14 4 17 9 10 16 -23 23 -12 72 24 114
50 59 43 71 -9 15 l-44 -46 -21 34 c-11 19 -21 46 -21 60 0 14 -3 35 -6 46 -8
30 69 83 131 91 l45 5 0 -42 c0 -23 -5 -51 -11 -63 -10 -21 -9 -21 10 2 14 15
21 37 21 62 0 30 4 39 18 40 9 0 -5 8 -33 17 -56 19 -67 40 -36 71 28 28 28
77 1 84 -11 3 -20 1 -20 -4 0 -5 -16 -9 -35 -9 -40 0 -41 3 -20 54 11 26 14
58 10 114 -6 106 0 126 36 118 16 -3 29 -1 29 4 0 6 -11 10 -24 10 -29 0 -41
15 -51 58 -4 18 -20 47 -36 63 -16 16 -29 36 -29 43 0 9 -7 12 -18 9 -16 -4
-21 6 -34 64 -15 65 -16 66 -11 16 5 -49 4 -53 -16 -53 -12 0 -21 6 -21 15 0
8 -4 15 -10 15 -5 0 -10 9 -10 19 0 11 -5 21 -12 23 -10 4 -9 14 1 45 8 24 11
53 7 70 -19 76 -17 88 5 40 15 -33 27 -46 36 -43 8 3 24 1 36 -5 20 -9 20 -9
-2 9 -21 17 -38 50 -58 115 -3 9 -1 17 5 17 6 0 14 -10 17 -22 10 -33 45 -68
69 -68 17 0 15 4 -14 29 l-35 29 -3 110 c-4 108 7 160 29 147 5 -4 9 1 9 10 0
9 7 23 15 31 17 17 19 52 5 74 -8 12 -10 9 -10 -12 0 -35 -10 -59 -21 -52 -5
3 -9 -5 -9 -17 0 -12 -7 -30 -16 -40 -14 -15 -18 -15 -42 -3 -15 7 -46 35 -69
61 -39 43 -43 53 -43 100 0 42 -3 51 -15 47 -9 -4 -17 1 -21 12 -3 11 -13 34
-21 51 -7 18 -13 39 -12 45 2 12 -38 88 -46 88 -2 0 1 -15 6 -32 15 -55 12
-61 -21 -38 -22 15 -30 30 -30 50 0 22 4 28 15 24 8 -4 15 -1 15 5 0 6 -7 11
-15 11 -12 0 -15 11 -13 50 3 55 9 62 26 28 7 -15 11 -18 11 -7 1 8 -6 24 -14
35 -8 10 -14 35 -13 54 0 23 2 27 5 13 2 -13 8 -23 13 -23 5 0 5 14 0 31 -5
18 -7 35 -4 40 2 4 -2 11 -10 16 -13 7 -13 15 -1 58 9 35 14 43 15 25 1 -14 4
-19 7 -12 8 20 -26 130 -53 173 -15 25 -40 45 -69 58 -60 27 -73 41 -68 76 5
33 -40 145 -57 145 -7 0 -6 -8 2 -22 18 -34 38 -90 38 -112 0 -15 -3 -16 -15
-6 -13 11 -15 8 -15 -16 0 -26 -2 -25 -35 22 -39 54 -44 76 -17 68 9 -3 5 2
-10 11 -16 8 -28 21 -28 27 0 6 -7 16 -17 23 -19 14 -11 50 9 40 7 -4 4 1 -6
9 -11 9 -26 16 -33 16 -7 0 -19 13 -28 29 -19 38 -45 65 -120 125 -70 56 -69
55 -84 124 -18 84 -68 178 -116 217 -23 19 -45 35 -49 35 -4 0 -15 9 -24 20
-10 11 -62 39 -116 61 -128 52 -183 55 -386 24z m189 -89 c54 -25 56 -36 7
-36 -36 0 -76 24 -76 46 0 19 10 18 69 -10z m281 -21 c16 -19 0 -19 -26 0 -16
12 -16 14 -3 15 9 0 22 -7 29 -15z m-1408 -502 c-65 -77 -110 -116 -137 -119
-23 -2 -24 -1 -14 19 24 46 87 101 73 62 -4 -8 -2 -15 4 -15 6 0 15 14 21 30
5 17 21 34 35 39 13 6 27 15 31 20 3 6 11 11 17 11 5 0 -8 -21 -30 -47z m1004
-27 c22 -4 53 -16 70 -27 16 -10 61 -35 101 -54 39 -20 74 -44 78 -53 3 -9 9
-48 12 -87 6 -69 42 -168 43 -117 0 12 -5 22 -12 22 -6 0 -8 3 -5 6 12 12 39
-19 33 -38 -2 -11 1 -21 8 -24 7 -3 13 -19 13 -37 3 -81 21 -143 64 -217 16
-27 26 -54 34 -88 7 -32 6 -32 -22 -21 -30 11 -177 4 -228 -12 -17 -5 -49 -10
-73 -11 -35 -1 -51 -9 -83 -38 -35 -34 -39 -42 -39 -87 0 -50 -16 -113 -28
-113 -4 0 -8 -24 -10 -53 -2 -28 -7 -54 -13 -56 -6 -2 -14 -14 -19 -26 -9 -24
-29 -26 -105 -9 -34 8 -67 33 -59 45 10 16 10 188 0 182 -5 -4 -6 5 -2 21 13
53 -41 116 -101 116 -17 0 -34 4 -37 8 -3 5 -32 10 -66 11 -33 1 -81 5 -106
10 -58 11 -118 -3 -152 -35 -15 -14 -38 -32 -52 -41 -14 -8 -37 -32 -52 -54
-37 -52 -68 -59 -118 -25 -43 28 -50 51 -26 89 8 12 17 40 20 62 12 69 37 135
52 135 8 0 14 6 14 13 0 8 7 27 15 44 14 28 48 183 43 200 -5 20 25 91 37 87
13 -5 72 48 91 82 7 11 27 22 49 25 22 4 47 16 56 28 9 11 21 21 27 21 5 0 17
8 26 19 9 10 44 25 77 32 32 7 59 16 59 20 0 4 15 14 33 23 24 11 69 16 152
18 75 1 122 7 129 14 6 7 16 8 21 4 6 -4 28 -11 51 -14z m914 -165 c0 -11 -4
-10 -15 5 -8 10 -14 26 -14 34 0 11 3 10 14 -4 8 -11 15 -27 15 -35z m-2083
17 c-3 -8 -6 -5 -6 6 -1 11 2 17 5 13 3 -3 4 -12 1 -19z m2093 -129 c0 -11 -4
-17 -10 -14 -5 3 -10 13 -10 21 0 8 5 14 10 14 6 0 10 -9 10 -21z m68 -47 c-2
-9 -11 -18 -21 -20 -13 -3 -17 3 -17 28 0 28 2 30 21 20 11 -6 19 -19 17 -28z
m160 -7 c12 -14 18 -25 14 -25 -5 0 -19 11 -32 25 -13 14 -19 25 -14 25 6 0
20 -11 32 -25z m-135 -37 c-3 -16 -10 -28 -15 -28 -6 0 -8 10 -4 23 3 12 6 29
6 37 0 9 3 10 9 5 5 -6 7 -22 4 -37z m71 -24 c10 -14 16 -33 14 -42 -2 -12 -9
-7 -26 19 -12 20 -22 39 -22 43 0 15 19 4 34 -20z m105 -59 c0 -5 -4 -3 -9 5
-5 8 -9 22 -9 30 0 16 17 -16 18 -35z m-223 -21 c7 -38 -2 -57 -16 -34 -13 20
-13 83 0 75 5 -3 12 -22 16 -41z m67 -37 c3 -8 8 -45 12 -83 9 -79 -2 -79 -45
0 -26 48 -22 68 7 45 16 -13 17 -12 4 3 -14 18 -9 48 8 48 5 0 11 -6 14 -13z
m157 4 c0 -6 -4 -13 -10 -16 -5 -3 -10 1 -10 9 0 9 5 16 10 16 6 0 10 -4 10
-9z m-133 -48 c-3 -10 -5 -4 -5 12 0 17 2 24 5 18 2 -7 2 -21 0 -30z m41 -1
c2 -15 -2 -22 -12 -22 -11 0 -16 9 -16 26 0 31 23 28 28 -4z m-2415 -19 c-15
-23 -18 -24 -21 -9 -2 10 2 22 10 27 24 16 29 9 11 -18z m2317 -43 c12 -16 17
-30 13 -30 -13 0 -53 39 -53 50 0 19 19 10 40 -20z m75 -20 c-4 -17 -9 -30
-11 -27 -2 2 -1 18 2 36 4 17 9 30 11 27 3 -2 2 -19 -2 -36z m-2395 7 c0 -14
-20 -37 -32 -37 -4 0 -2 11 4 25 12 27 28 34 28 12z m2344 -52 c11 -8 16 -18
12 -22 -3 -4 -16 3 -28 15 -25 25 -13 29 16 7z m107 -92 c-9 -16 -10 -15 -11
7 0 14 4 36 8 50 7 24 7 24 10 -7 2 -18 -1 -41 -7 -50z m-72 3 c0 -6 -3 -5 -6
2 -2 6 -11 12 -18 12 -8 0 -19 9 -25 19 -18 34 -11 36 20 6 17 -16 30 -34 29
-39z m-2433 -30 c5 -14 -34 -82 -52 -90 -9 -3 -9 4 -1 27 23 73 41 94 53 63z
m-91 -36 c-8 -16 -16 -44 -16 -62 l-2 -33 -4 30 c-3 17 -9 35 -15 42 -5 7 -7
17 -3 24 6 8 10 7 16 -2 7 -11 10 -9 15 9 4 12 10 22 15 22 5 0 3 -13 -6 -30z
m1825 -84 c0 -2 -9 -6 -20 -9 -11 -3 -20 -1 -20 4 0 5 9 9 20 9 11 0 20 -2 20
-4z m-1476 -59 c-10 -27 -23 -19 -22 14 1 26 3 28 15 16 8 -7 11 -21 7 -30z
m186 28 c23 -8 61 -15 84 -15 61 -1 24 -16 -58 -24 -77 -8 -103 3 -85 35 12
23 7 22 59 4z m2190 -36 c0 -5 -4 -9 -10 -9 -5 0 -10 7 -10 16 0 8 5 12 10 9
6 -3 10 -10 10 -16z m-1805 1 c3 -5 -3 -10 -15 -10 -12 0 -18 5 -15 10 3 6 10
10 15 10 5 0 12 -4 15 -10z m-543 -32 c-5 -20 -17 -24 -27 -8 -8 13 1 27 18
27 9 0 12 -7 9 -19z m378 -24 c0 -3 -9 -17 -20 -31 -22 -29 -27 -97 -9 -136 9
-21 23 -27 85 -37 43 -8 110 -10 163 -7 74 4 99 10 141 34 42 23 50 32 47 50
-7 39 10 15 23 -32 28 -101 -7 -213 -95 -302 -66 -65 -146 -93 -269 -93 -73 0
-87 3 -127 28 -108 69 -167 179 -170 320 -2 67 1 82 23 117 31 50 48 64 95 81
39 13 113 19 113 8z m1047 -51 c-21 -21 -27 -15 -16 16 7 19 12 22 21 13 9 -9
8 -16 -5 -29z m1003 4 c0 -5 -4 -5 -10 -2 -5 3 -10 14 -10 23 0 15 2 15 10 2
5 -8 10 -19 10 -23z m-1150 -19 c0 -10 -12 -10 -29 1 -8 5 -11 16 -7 27 6 16
7 16 21 -2 8 -10 15 -22 15 -26z m-806 -1 c14 -22 3 -31 -29 -23 -26 7 -34 31
-12 39 18 8 29 3 41 -16z m166 -1 c0 -8 -6 -16 -14 -19 -10 -4 -12 0 -9 14 6
22 23 26 23 5z m-204 -50 c45 -39 43 -50 -9 -35 -37 10 -58 34 -50 57 7 18 16
15 59 -22z m-332 -81 c18 -125 69 -229 143 -295 74 -65 125 -84 268 -96 90 -7
97 -10 93 -36 -2 -11 2 -23 9 -25 7 -3 9 4 5 19 -5 20 -3 21 10 11 20 -17 134
-9 130 9 -2 7 -7 15 -12 18 -5 3 -13 17 -18 31 -12 31 7 81 47 124 15 17 35
51 45 76 25 69 71 136 106 154 29 15 33 15 55 -2 36 -28 104 -119 126 -170 11
-26 36 -64 55 -85 27 -31 34 -46 32 -71 -5 -53 -42 -49 -130 15 -25 18 -31 5
-18 -41 6 -24 21 -48 36 -57 30 -20 49 -53 37 -64 -9 -9 -97 5 -124 20 -10 5
-20 5 -27 -2 -6 -6 -32 -14 -58 -19 -55 -11 -74 -24 -74 -53 0 -22 -20 -36
-114 -84 -41 -21 -52 -23 -68 -13 -28 18 -78 -3 -78 -33 0 -33 31 -47 77 -34
21 5 44 15 50 20 7 6 24 7 38 4 18 -5 25 -2 25 8 0 10 -6 13 -16 9 -11 -4 -15
-2 -13 6 3 7 8 12 12 11 4 0 14 6 22 14 11 10 39 15 100 15 49 0 99 7 119 15
22 9 46 11 74 6 22 -4 47 -3 57 2 11 7 27 6 46 -2 44 -18 20 -37 -54 -45 -94
-9 -227 -17 -270 -15 -44 1 -88 -18 -49 -21 86 -8 180 -24 188 -32 4 -4 12 -2
19 3 20 17 207 31 222 17 13 -13 -9 -38 -47 -53 -22 -9 -45 -25 -51 -35 -9
-17 -6 -19 38 -16 l48 2 8 -65 c4 -35 12 -67 17 -70 6 -4 8 -45 5 -98 -4 -67
-2 -92 7 -92 6 0 1 -11 -12 -24 -13 -15 -20 -32 -17 -40 4 -9 1 -16 -5 -16 -6
0 -8 -3 -5 -6 8 -9 -31 -39 -63 -49 -14 -4 -29 -11 -35 -14 -15 -11 -90 -14
-135 -6 -29 5 -40 12 -40 25 0 21 -21 32 -41 19 -10 -6 -21 0 -40 22 -23 29
-28 30 -49 19 -18 -9 -25 -10 -28 -1 -2 6 -12 11 -23 11 -10 0 -43 24 -72 53
-161 159 -271 259 -305 276 -41 21 -66 46 -142 139 -69 84 -95 144 -126 293
-23 107 -27 149 -28 311 -1 182 3 207 18 103z m1032 29 c20 -4 38 -12 40 -19
12 -29 59 -25 141 11 21 9 70 15 143 15 137 1 141 -2 155 -148 2 -17 6 -36 9
-42 4 -5 2 -12 -4 -16 -5 -3 -10 -12 -10 -18 0 -7 21 11 46 38 26 28 45 46 42
40 -21 -50 -48 -86 -89 -120 -164 -136 -416 -80 -500 110 -21 47 -35 157 -23
177 7 10 9 9 12 -4 2 -11 17 -20 38 -24z m-1565 -17 c-8 -8 -11 -5 -11 9 0 27
14 41 18 19 2 -9 -1 -22 -7 -28z m2809 -23 c0 -8 -4 -12 -10 -9 -5 3 -10 10
-10 16 0 5 5 9 10 9 6 0 10 -7 10 -16z m-655 -33 c-4 -17 -10 -33 -14 -36 -5
-2 -3 13 2 35 13 46 22 46 12 1z m607 14 c6 -28 -6 -34 -16 -9 -5 14 0 34 8
34 2 0 6 -11 8 -25z m128 -18 c0 -5 -4 -5 -10 -2 -5 3 -10 14 -10 23 0 15 2
15 10 2 5 -8 10 -19 10 -23z m60 0 c0 -18 -2 -19 -10 -7 -13 20 -13 43 0 35 6
-3 10 -16 10 -28z m-2990 -51 c0 -78 -22 -102 -38 -43 -6 17 -13 39 -16 48 -5
10 1 19 16 27 36 17 38 15 38 -32z m34 -55 c-4 -39 -13 -76 -20 -82 -21 -18
-27 30 -9 80 8 24 15 58 15 75 1 25 2 28 10 14 6 -10 8 -46 4 -87z m2936 49
c0 -24 -31 -90 -42 -90 -11 0 -10 6 9 66 17 51 33 62 33 24z m-70 -15 c0 -24
-5 -35 -15 -35 -18 0 -19 23 -3 50 17 27 18 26 18 -15z m91 -72 c-8 -15 -10
-15 -11 -2 0 17 10 32 18 25 2 -3 -1 -13 -7 -23z m-81 -38 c0 -8 -4 -15 -10
-15 -5 0 -7 7 -4 15 4 8 8 15 10 15 2 0 4 -7 4 -15z m72 -20 c-2 -14 -6 -25
-8 -25 -2 0 -4 11 -4 25 0 14 4 25 9 25 4 0 6 -11 3 -25z m-876 -14 c-4 -5 0
-12 6 -15 7 -3 4 -4 -7 -3 -12 1 -19 -3 -17 -10 1 -7 -2 -13 -7 -13 -5 0 -11
-15 -15 -32 -10 -55 -12 -60 -28 -72 -8 -6 -18 -21 -22 -32 -7 -23 -46 -36
-68 -23 -29 19 -158 1 -158 -21 0 -14 18 -12 23 3 3 9 8 9 16 1 10 -9 9 -15
-1 -26 -7 -7 -18 -23 -24 -33 -15 -27 -125 -33 -148 -9 -20 20 -20 29 1 50 10
9 18 22 18 28 2 34 19 76 31 76 8 0 14 -4 14 -8 0 -5 12 -14 26 -21 26 -12 27
-11 21 18 -4 17 -2 33 3 36 6 4 8 10 5 14 -2 5 39 11 93 15 57 4 106 13 119
21 12 8 30 12 39 8 11 -4 15 -3 11 4 -4 6 8 20 26 32 34 22 52 27 43 12z
m-395 -51 c10 0 19 -4 19 -9 0 -5 -6 -8 -12 -7 -21 3 -38 16 -37 29 0 9 2 9 6
0 2 -7 13 -13 24 -13z m-1664 -37 c-3 -10 -5 -4 -5 12 0 17 2 24 5 18 2 -7 2
-21 0 -30z m2889 -18 c-8 -32 -36 -22 -36 12 0 13 4 22 9 19 5 -3 12 2 16 12
8 16 8 16 12 -1 3 -10 2 -29 -1 -42z m50 -32 c-10 -10 -19 5 -10 18 6 11 8 11
12 0 2 -7 1 -15 -2 -18z m-2937 -10 c10 -10 21 -33 24 -51 6 -29 5 -31 -7 -19
-15 15 -48 87 -40 87 3 0 13 -8 23 -17z m-39 -49 c22 -51 25 -74 11 -74 -6 0
-7 -15 -4 -33 6 -41 -54 -166 -92 -191 -15 -10 -25 -26 -25 -40 0 -12 -9 -31
-19 -40 -19 -17 -22 -16 -75 40 -39 39 -56 65 -56 83 0 19 -3 22 -9 12 -18
-28 -24 52 -7 90 l16 34 -6 -49 c-3 -29 -2 -46 4 -42 5 3 12 29 15 58 9 73 33
101 92 110 27 4 57 16 70 28 l23 22 16 -29 16 -28 -6 48 c-8 61 8 62 36 1z
m2897 24 c-3 -8 -6 -5 -6 6 -1 11 2 17 5 13 3 -3 4 -12 1 -19z m143 -159 c0
-5 -4 -9 -10 -9 -5 0 -10 7 -10 16 0 8 5 12 10 9 6 -3 10 -10 10 -16z m-42
-22 c-2 -11 -9 -22 -15 -25 -16 -4 -27 22 -19 43 8 22 38 6 34 -18z m92 9 c0
-8 -4 -18 -10 -21 -5 -3 -10 3 -10 14 0 12 5 21 10 21 6 0 10 -6 10 -14z m-65
-26 c3 -5 1 -10 -4 -10 -6 0 -11 5 -11 10 0 6 2 10 4 10 3 0 8 -4 11 -10z
m133 -25 c-3 -3 -9 2 -12 12 -6 14 -5 15 5 6 7 -7 10 -15 7 -18z m-13 -22 c28
-42 35 -99 10 -89 -10 4 -15 -1 -15 -15 0 -11 -4 -17 -10 -14 -5 3 -10 17 -10
30 0 13 -7 40 -17 59 -13 29 -14 38 -3 51 17 20 16 21 45 -22z m-110 6 c4 -6
5 -13 2 -16 -8 -7 -47 7 -47 18 0 13 37 11 45 -2z m-123 -91 c-7 -7 -12 -8
-12 -2 0 14 12 26 19 19 2 -3 -1 -11 -7 -17z m58 2 c0 -5 -4 -10 -10 -10 -5 0
-10 5 -10 10 0 6 5 10 10 10 6 0 10 -4 10 -10z m40 -45 c0 -21 -43 -62 -48
-47 -5 15 24 62 38 62 6 0 10 -7 10 -15z m-94 -42 c-11 -11 -19 6 -11 24 8 17
8 17 12 0 3 -10 2 -21 -1 -24z m154 21 c0 -8 -5 -12 -10 -9 -6 4 -8 11 -5 16
9 14 15 11 15 -7z m107 -46 c-3 -8 -6 -5 -6 6 -1 11 2 17 5 13 3 -3 4 -12 1
-19z m-157 -32 c0 -8 -7 -21 -15 -30 -8 -8 -15 -19 -15 -25 0 -17 -17 -13 -24
5 -10 26 -7 52 7 57 24 10 47 7 47 -7z m134 -66 c-7 -42 -47 -90 -59 -70 -10
15 3 58 26 91 10 15 19 35 20 46 0 14 2 13 10 -5 5 -13 6 -41 3 -62z m23 18
c-3 -7 -5 -2 -5 12 0 14 2 19 5 13 2 -7 2 -19 0 -25z m-147 -39 c0 -11 -4 -18
-10 -14 -5 3 -7 12 -3 20 7 21 13 19 13 -6z m-90 -22 c0 -18 -2 -19 -10 -7
-13 20 -13 43 0 35 6 -3 10 -16 10 -28z m127 1 c-3 -7 -5 -2 -5 12 0 14 2 19
5 13 2 -7 2 -19 0 -25z m-3157 -5 c0 -10 9 -29 20 -43 34 -44 18 -69 -22 -33
-19 17 -26 93 -8 93 6 0 10 -8 10 -17z m3310 -55 c-1 -32 -33 -50 -67 -37 -32
12 -29 24 10 37 45 14 57 14 57 0z m-200 -34 c0 -8 -5 -12 -10 -9 -6 4 -8 11
-5 16 9 14 15 11 15 -7z m-3146 -20 c4 -10 1 -14 -6 -12 -15 5 -23 28 -10 28
5 0 13 -7 16 -16z m3241 -3 c3 -5 1 -12 -5 -16 -5 -3 -10 1 -10 9 0 18 6 21
15 7z m43 -27 c-10 -10 -28 6 -28 24 0 15 1 15 17 -1 9 -9 14 -19 11 -23z
m-52 -16 c2 2 10 1 17 -1 8 -3 5 -12 -9 -27 -28 -29 -44 -18 -44 28 1 35 1 36
16 17 8 -11 17 -19 20 -17z m124 8 c0 -11 -19 -15 -25 -6 -3 5 1 10 9 10 9 0
16 -2 16 -4z m-344 -83 c-10 -10 -19 5 -10 18 6 11 8 11 12 0 2 -7 1 -15 -2
-18z m204 -33 c28 -55 24 -73 -5 -25 -23 37 -32 65 -20 65 2 0 14 -18 25 -40z
m-20 -73 c0 -20 3 -27 8 -19 7 9 13 8 27 -8 22 -25 16 -34 -17 -21 -36 13 -51
37 -44 66 9 34 26 22 26 -18z m-255 -29 l-17 -23 6 25 c3 14 6 34 7 45 0 19 1
19 11 -2 8 -16 6 -27 -7 -45z m323 -95 c2 -13 -2 -23 -9 -23 -7 0 -21 -8 -31
-17 -19 -17 -19 -16 -13 9 6 23 4 26 -12 22 -23 -6 -73 12 -73 26 0 7 25 10
68 8 61 -3 67 -5 70 -25z m-3413 -25 c-7 -43 -20 -68 -35 -68 -9 0 -2 24 21
78 18 43 22 40 14 -10z m21 -9 c-9 -19 -15 -29 -16 -22 0 15 22 64 27 60 2 -2
-3 -19 -11 -38z m3229 21 c3 -5 1 -10 -4 -10 -6 0 -11 5 -11 10 0 6 2 10 4 10
3 0 8 -4 11 -10z m45 -44 c0 -9 -7 -12 -21 -9 -16 4 -17 8 -7 14 19 13 28 11
28 -5z m48 -53 c14 -32 16 -67 2 -58 -5 3 -10 17 -10 31 0 13 -4 24 -10 24 -5
0 -10 -12 -10 -26 0 -31 -23 -28 -28 4 -2 15 2 22 12 22 9 0 16 7 16 15 0 24
14 17 28 -12z m-121 -210 c-15 -16 -17 -16 -17 -1 0 9 6 18 13 21 20 7 22 -2
4 -20z m183 -238 c0 -8 -6 -15 -14 -15 -8 0 -17 -6 -19 -12 -3 -7 -6 -4 -6 8
-1 11 2 24 6 27 12 13 33 7 33 -8z m-3429 -26 c-9 -22 -10 -22 -10 -3 -1 11 2
24 6 27 12 12 14 0 4 -24z m3437 -452 c3 -42 1 -48 -15 -45 -19 4 -39 58 -29
83 3 9 14 15 23 13 14 -2 19 -15 21 -51z m-1826 -99 c-7 -7 -12 -8 -12 -2 0
14 12 26 19 19 2 -3 -1 -11 -7 -17z m38 -14 c0 -8 -4 -12 -10 -9 -5 3 -10 10
-10 16 0 5 5 9 10 9 6 0 10 -7 10 -16z m1714 -90 c13 -12 14 -20 5 -36 -9 -17
-13 -18 -20 -7 -9 14 -13 59 -5 59 3 0 12 -7 20 -16z m-3265 -195 c20 -33 17
-69 -5 -69 -21 0 -36 38 -29 71 4 16 9 29 11 29 2 0 13 -14 23 -31z m1846 -16
c-9 -37 -18 -20 -9 19 4 18 9 27 11 20 3 -7 2 -24 -2 -39z m1425 -6 c30 11 31
11 28 -15 -3 -24 -7 -27 -38 -25 -39 2 -73 34 -63 60 5 13 9 11 24 -8 16 -22
21 -23 49 -12z m-2990 6 c0 -22 -17 -50 -25 -42 -6 7 11 59 20 59 3 0 5 -8 5
-17z m1532 -34 l36 -41 39 21 39 20 30 -24 c28 -22 29 -27 32 -114 2 -50 8
-91 13 -91 6 0 9 7 7 16 -2 10 3 19 10 21 8 3 12 -5 12 -24 0 -22 2 -25 10
-13 11 17 11 19 15 -40 8 -111 16 -156 36 -188 11 -19 18 -41 15 -49 -9 -23
13 -63 44 -81 17 -9 33 -27 36 -39 4 -13 11 -23 16 -23 5 0 35 -18 67 -40 31
-22 66 -40 78 -40 11 0 26 -7 33 -15 9 -11 15 -12 20 -5 9 14 38 2 51 -21 5
-11 18 -19 29 -19 17 0 18 -3 9 -27 -5 -14 -8 -32 -5 -40 3 -7 1 -13 -3 -13
-19 0 -21 -36 -4 -67 16 -31 16 -36 3 -61 -18 -32 -67 -43 -86 -18 -9 14 -16
10 -50 -27 -22 -23 -49 -58 -61 -77 -12 -19 -36 -46 -54 -60 -18 -14 -52 -44
-77 -67 -61 -58 -77 -62 -116 -24 -18 17 -35 28 -39 24 -9 -8 -57 36 -57 53 0
6 -30 36 -67 66 -38 30 -108 93 -158 141 -84 81 -90 84 -100 64 -15 -31 -61
-34 -91 -6 -31 29 -32 73 -2 93 l22 15 -30 22 c-16 12 -87 81 -159 153 -118
118 -128 131 -105 134 14 2 33 11 43 20 16 14 19 14 27 2 11 -18 18 -11 23 19
2 12 9 26 16 31 9 5 10 10 2 14 -6 4 -16 4 -23 0 -15 -10 26 48 47 66 9 8 15
29 15 56 0 30 8 55 26 81 19 28 24 48 22 78 -2 33 1 42 20 50 12 5 22 16 22
23 0 7 8 12 18 11 9 -1 26 1 37 5 40 15 110 50 115 57 11 15 65 39 91 39 18 0
37 -13 61 -41z m1545 -21 c-3 -7 -5 -2 -5 12 0 14 2 19 5 13 2 -7 2 -19 0 -25z
m-27 2 c0 -11 -2 -20 -4 -20 -2 0 -6 9 -9 20 -3 11 -1 20 4 20 5 0 9 -9 9 -20z
m-250 -137 c-25 -18 -38 -10 -21 11 7 8 19 12 27 9 12 -4 11 -8 -6 -20z
m-1740 -167 c0 -15 -29 -30 -39 -20 -3 3 3 12 13 20 24 17 26 17 26 0z m1965
-16 c34 -65 6 -128 -34 -79 -26 32 -34 65 -21 89 15 29 37 25 55 -10z m-2897
-52 c34 -28 -8 -105 -51 -93 -48 15 -61 61 -26 96 20 20 48 19 77 -3z m2555
-5 c9 24 44 21 52 -4 4 -11 4 -23 1 -26 -3 -4 -6 -1 -6 5 0 7 -6 12 -14 12 -8
0 -17 6 -20 13 -3 6 -4 -7 -2 -30 2 -24 1 -43 -3 -43 -14 0 -43 62 -36 78 6
15 8 15 14 -2 7 -17 8 -18 14 -3z m-843 -3 c0 -5 -2 -10 -4 -10 -3 0 -8 5 -11
10 -3 6 -1 10 4 10 6 0 11 -4 11 -10z m-1962 -42 c22 -22 14 -76 -14 -94 -23
-16 -28 -16 -60 -1 -26 13 -34 23 -34 44 0 14 7 35 17 45 18 20 73 24 91 6z
m857 -34 c23 -24 15 -57 -19 -73 -26 -12 -33 -12 -55 0 -34 19 -38 53 -9 73
29 21 62 20 83 0z m-391 -50 c21 -20 20 -32 -4 -71 -16 -27 -26 -33 -54 -33
-41 0 -54 26 -36 70 18 44 67 62 94 34z m2605 -50 c41 -52 15 -112 -33 -80
-29 18 -40 48 -32 82 8 32 39 31 65 -2z m-373 -39 c12 -50 -17 -77 -62 -56
-34 15 -30 62 6 72 42 12 49 10 56 -16z m-1674 -32 c22 -20 23 -51 1 -75 -36
-40 -122 -4 -107 45 3 12 11 28 16 35 15 17 68 15 90 -5z m-1148 -53 c34 -13
54 -54 36 -75 -17 -20 -19 -20 -63 21 -54 50 -39 79 27 54z m3362 -46 c14 -20
15 -30 6 -50 -27 -59 -72 -36 -72 36 0 25 3 50 6 53 10 10 42 -11 60 -39z
m-2501 24 c39 -18 44 -56 11 -85 -69 -59 -145 9 -81 72 27 28 34 30 70 13z
m2260 -62 c20 -30 16 -75 -8 -90 -33 -20 -69 50 -51 98 9 24 41 19 59 -8z
m-2507 -67 c4 -47 -30 -91 -67 -87 -21 2 -27 9 -29 36 -3 25 3 39 27 63 40 40
65 35 69 -12z m-648 -23 c0 -19 -9 -44 -20 -57 -17 -21 -21 -22 -30 -9 -10 14
-6 92 6 111 12 21 44 -12 44 -45z m354 38 c25 -25 30 -61 12 -89 -21 -32 -40
-32 -71 0 -29 28 -32 61 -8 87 20 22 46 23 67 2z m-270 -36 c9 -12 16 -35 16
-50 0 -27 -30 -68 -50 -68 -24 0 -38 66 -24 118 8 28 38 29 58 0z m2748 5 c25
-22 24 -69 -3 -83 -41 -23 -92 36 -69 80 13 24 47 26 72 3z m-1694 -39 c26
-18 29 -55 5 -77 -43 -38 -113 -16 -113 35 0 51 62 75 108 42z m2214 -84 c6
-62 -7 -83 -21 -34 -11 41 -7 74 9 74 4 0 10 -18 12 -40z m-2482 -28 c44 -36
-2 -112 -68 -112 -58 0 -57 86 3 118 28 16 40 15 65 -6z m614 -13 c17 -49 -51
-108 -93 -82 -24 15 -25 56 0 87 29 36 79 34 93 -5z m1624 8 c17 -20 26 -93
13 -101 -13 -8 -51 51 -51 80 0 34 19 44 38 21z m186 -56 c17 -31 12 -67 -11
-75 -21 -8 -70 20 -78 45 -24 75 53 101 89 30z m-2669 0 c7 -23 -15 -80 -38
-99 -21 -18 -51 -11 -55 11 -13 65 74 147 93 88z m2379 -17 c22 -21 20 -60 -4
-84 -25 -25 -31 -25 -64 1 -28 22 -35 66 -14 87 17 17 64 15 82 -4z m-272 -11
c25 -22 24 -79 -2 -93 -40 -21 -100 16 -100 62 0 43 66 64 102 31z m-1450 -20
c39 -35 5 -103 -52 -103 -30 0 -60 30 -60 60 0 9 7 26 16 38 18 27 69 30 96 5z
m-1164 -73 c4 -56 -5 -90 -23 -90 -34 0 -47 79 -19 118 23 33 39 22 42 -28z
m2337 7 c49 -71 -46 -135 -97 -66 -15 20 -17 30 -9 52 18 48 77 55 106 14z
m-691 1 c20 -29 20 -52 0 -72 -33 -33 -114 -9 -114 33 0 33 30 61 65 61 24 0
39 -7 49 -22z m-1530 -74 c9 -23 7 -117 -3 -132 -13 -21 -33 11 -38 62 -7 60
24 114 41 70z m2916 -30 c0 -14 -4 -22 -10 -19 -5 3 -10 17 -10 31 0 14 4 22
10 19 6 -3 10 -17 10 -31z m-904 -10 c16 -23 16 -28 1 -59 -30 -64 -97 -56
-97 11 0 65 64 97 96 48z m-1507 -3 c7 -5 14 -21 14 -37 0 -61 -105 -104 -119
-48 -14 57 57 115 105 85z m-365 -23 c9 -12 16 -39 16 -59 0 -31 -4 -38 -30
-49 -26 -11 -33 -10 -50 5 -39 35 -17 125 31 125 10 0 25 -10 33 -22z m1232
-34 c29 -69 5 -99 -57 -74 -23 10 -29 19 -29 43 0 68 61 90 86 31z m414 9 c-1
-9 -57 -73 -65 -73 -12 0 -3 29 16 54 19 24 49 36 49 19z m-1430 -55 c0 -13
-32 -6 -37 9 -3 7 3 9 16 6 12 -3 21 -10 21 -15z m800 -7 c16 -30 12 -50 -15
-76 -29 -30 -58 -32 -85 -5 -25 25 -25 41 1 74 26 33 83 37 99 7z m1703 -12
c15 -23 0 -66 -28 -85 -31 -20 -45 -11 -45 29 0 61 47 97 73 56z m-3003 -68
c0 -45 -12 -64 -36 -59 -14 2 -20 13 -22 45 -2 23 2 52 8 63 11 21 12 21 31 4
12 -11 19 -30 19 -53z m2519 44 c8 -8 14 -28 14 -46 0 -59 -64 -79 -109 -34
-29 29 -26 58 9 88 23 20 61 16 86 -8z m-2365 -95 c4 -28 3 -58 -2 -66 -8 -14
-11 -13 -26 7 -16 23 -23 109 -9 122 13 14 31 -15 37 -63z m1714 22 c6 -43
-38 -73 -82 -56 -22 8 -20 18 10 54 32 37 67 38 72 2z m182 9 c21 -41 9 -101
-21 -101 -20 0 -49 36 -49 60 0 22 29 60 45 60 8 0 19 -9 25 -19z m-320 -17
c0 -8 -12 -33 -26 -56 l-27 -42 -18 23 c-29 36 -24 67 15 88 24 13 56 5 56
-13z m-899 -13 c13 -13 18 -46 9 -61 -8 -13 -13 -12 -36 6 -41 30 -52 52 -34
64 15 9 48 4 61 -9z m1481 -28 c39 -36 9 -103 -46 -103 -51 0 -72 37 -50 88
11 27 18 32 45 32 18 0 41 -7 51 -17z m410 -10 c25 -22 24 -79 -1 -93 -70 -37
-128 35 -79 98 15 17 58 15 80 -5z m-2294 -5 c15 -15 16 -72 2 -99 -6 -11 -21
-19 -35 -19 -28 0 -45 26 -45 69 0 49 48 79 78 49z m2883 -29 c20 -39 -4 -119
-37 -119 -9 0 -11 14 -7 58 2 31 6 63 9 70 5 19 22 14 35 -9z m-2696 -43 c7
-37 -16 -96 -39 -96 -32 0 -47 90 -20 128 21 30 51 14 59 -32z m467 27 c27
-24 22 -58 -13 -87 -36 -30 -46 -32 -71 -9 -24 22 -23 62 4 90 25 27 54 29 80
6z m1936 -15 c28 -28 -7 -108 -48 -108 -24 0 -38 60 -21 96 12 26 48 33 69 12z
m-1272 -113 c3 -14 3 -33 0 -42 -6 -15 -8 -15 -16 -3 -13 20 -13 70 0 70 5 0
12 -11 16 -25z m-1761 -4 c-8 -13 -65 -15 -65 -2 0 6 15 11 33 13 38 4 41 3
32 -11z m2484 4 c43 -22 54 -64 24 -97 -34 -38 -113 -8 -113 42 0 19 40 70 55
70 3 0 19 -7 34 -15z m-1643 -20 c28 -43 -4 -115 -52 -115 -27 0 -54 34 -54
68 0 65 73 98 106 47z m508 -38 c-8 -48 -23 -77 -41 -77 -17 0 -16 15 3 69 19
57 23 63 35 55 6 -4 8 -23 3 -47z m1902 -17 l-14 -45 -1 38 c-1 21 4 48 11 60
19 34 21 1 4 -53z m-343 31 c55 -21 37 -111 -23 -111 -15 0 -36 7 -44 16 -24
23 -20 70 6 88 26 19 29 19 61 7z m-873 -81 c40 -40 16 -103 -38 -103 -40 0
-62 19 -62 52 0 32 33 71 60 71 11 0 29 -9 40 -20z m-1542 -6 c42 -29 17 -114
-34 -114 -24 0 -64 31 -64 49 0 26 22 63 42 71 31 12 31 12 56 -6z m-214 -16
c9 -12 16 -42 16 -65 0 -75 -35 -44 -46 42 -7 50 5 59 30 23z m-535 -82 c-9
-8 -10 -3 -5 23 3 18 7 41 8 50 1 9 3 -1 5 -23 3 -22 -1 -43 -8 -50z m2599 41
c17 -14 15 -67 -5 -89 -41 -46 -115 -1 -96 59 16 46 62 60 101 30z m990 -54
c3 -57 1 -63 -16 -63 -26 0 -52 41 -52 83 0 41 7 49 40 45 23 -3 25 -7 28 -65z
m-3459 20 c-1 -37 -1 -37 -8 -8 -7 28 -5 45 5 45 2 0 3 -17 3 -37z m2796 2
c14 -13 25 -31 25 -40 0 -9 -11 -27 -25 -40 -13 -14 -31 -25 -40 -25 -9 0 -27
11 -40 25 -14 13 -25 31 -25 40 0 9 11 27 25 40 13 14 31 25 40 25 9 0 27 -11
40 -25z m299 7 c6 -10 -2 -20 -37 -51 -25 -23 -27 -23 -27 -5 0 37 49 80 64
56z m-1430 -34 c8 -18 12 -37 11 -42 -2 -6 -6 -23 -9 -38 -10 -42 -30 -35 -23
8 5 32 3 37 -23 52 -43 25 -39 52 7 52 17 0 28 -9 37 -32z m114 10 c7 -7 12
-29 12 -50 0 -31 -5 -41 -24 -50 -14 -6 -31 -8 -39 -5 -18 7 -28 86 -14 105
12 15 49 16 65 0z m1530 0 c7 -7 12 -25 12 -40 0 -35 -25 -98 -39 -98 -19 0
-41 45 -41 85 0 43 13 65 40 65 9 0 21 -5 28 -12z m-3060 -80 c21 -21 14 -65
-14 -87 -32 -25 -57 -27 -79 -5 -19 19 -13 58 12 87 18 20 63 23 81 5z m938
-49 c36 -70 -20 -144 -70 -93 -21 20 -20 83 1 106 24 27 50 22 69 -13z m871
-53 c24 -21 26 -27 18 -52 -12 -32 -56 -58 -84 -49 -24 7 -45 48 -36 74 6 18
47 49 67 51 4 0 19 -11 35 -24z m-577 10 c0 -2 -8 -10 -17 -17 -16 -13 -17
-12 -4 4 13 16 21 21 21 13z m925 -71 c29 -28 31 -51 9 -83 -18 -26 -41 -28
-66 -5 -22 20 -24 76 -2 97 21 22 31 20 59 -9z m227 8 c22 -20 23 -35 3 -73
-18 -35 -57 -40 -87 -13 -24 21 -23 44 3 77 23 30 54 33 81 9z m482 1 c35 -35
31 -105 -7 -128 -15 -9 -23 -6 -43 17 -28 32 -31 73 -8 105 18 26 37 28 58 6z
m-2176 -27 c10 -21 11 -35 2 -61 -19 -59 -71 -59 -90 -1 -12 36 -6 74 14 88
23 15 61 2 74 -26z m2339 11 c-3 -8 -6 -5 -6 6 -1 11 2 17 5 13 3 -3 4 -12 1
-19z m-2605 -5 c10 -9 18 -26 18 -38 0 -27 -46 -75 -71 -75 -35 0 -63 73 -41
106 17 26 68 30 94 7z m-702 -32 c0 -67 -39 -121 -59 -82 -13 24 4 87 27 100
27 16 32 13 32 -18z m1480 19 c0 -5 -4 -10 -10 -10 -5 0 -10 5 -10 10 0 6 5
10 10 10 6 0 10 -4 10 -10z m1968 -50 c4 -42 -5 -80 -20 -80 -26 0 -68 53 -68
87 0 67 82 60 88 -7z m-3283 19 c18 -54 -27 -136 -60 -109 -21 18 -19 73 6
104 25 31 45 33 54 5z m2601 -1 c11 -36 7 -77 -11 -104 -27 -41 -59 -26 -71
33 -4 23 0 36 21 61 32 38 51 41 61 10z m234 -57 c24 -45 1 -131 -35 -131 -20
0 -45 40 -45 71 0 30 34 79 55 79 8 0 19 -9 25 -19z m-1520 -22 c14 -24 6 -61
-16 -83 -20 -21 -26 -20 -54 4 -30 26 -34 25 -49 -7 -11 -25 -14 -26 -22 -10
-6 9 -9 34 -7 55 3 35 5 37 37 37 19 0 36 6 38 13 8 21 61 14 73 -9z m802 4
c25 -23 25 -89 -1 -103 -29 -15 -39 -13 -66 15 -29 28 -32 61 -8 87 20 22 51
23 75 1z m-288 -40 c11 -68 8 -93 -12 -93 -27 0 -42 20 -42 59 0 31 22 71 40
71 4 0 10 -17 14 -37z m-232 10 c35 -32 11 -113 -34 -113 -53 0 -77 71 -38
110 24 24 47 25 72 3z m-1162 -64 c21 -49 -15 -100 -48 -67 -15 15 -15 46 -1
87 13 36 29 30 49 -20z m-284 3 c19 -12 25 -48 13 -75 -14 -30 -48 -50 -80
-45 -20 2 -25 10 -27 40 -5 58 53 107 94 80z m2904 -24 c-11 -48 -27 -85 -39
-93 -16 -9 -14 8 10 70 22 60 42 75 29 23z m-2336 -10 c20 -28 20 -58 2 -83
-19 -27 -67 -10 -80 27 -21 60 43 106 78 56z m2492 -33 c8 -13 14 -38 12 -57
-3 -29 -6 -33 -33 -33 -26 0 -32 5 -43 41 -17 55 -2 100 28 84 11 -6 27 -21
36 -35z m-3507 -7 c-1 -40 -1 -41 -9 -15 -8 26 -4 57 6 57 2 0 4 -19 3 -42z
m2591 3 c0 -13 -29 -35 -37 -28 -7 8 15 37 28 37 5 0 9 -4 9 -9z m-1280 -30
c15 -29 12 -72 -7 -93 -18 -20 -73 -24 -91 -6 -19 19 -14 76 8 98 26 26 76 26
90 1z m1496 -27 c30 -72 -10 -155 -53 -111 -23 23 -28 92 -9 122 23 35 44 31
62 -11z m580 -50 c8 -56 -9 -103 -31 -84 -23 19 -27 65 -11 105 19 45 33 38
42 -21z m-880 -21 c14 -74 -34 -123 -70 -71 -25 36 -21 75 12 92 41 23 50 19
58 -21z m718 15 c19 -26 20 -53 5 -97 -22 -62 -89 -26 -89 48 0 63 53 93 84
49z m-1640 -11 c16 -11 18 -22 12 -59 -7 -47 -23 -62 -51 -52 -35 14 -45 66
-19 102 17 25 33 28 58 9z m1390 -26 c26 -28 32 -86 12 -116 -22 -33 -48 -32
-69 4 -21 36 -22 63 -2 101 18 35 35 38 59 11z m-356 -34 c15 -17 28 -85 24
-119 -4 -33 -30 -38 -55 -10 -19 21 -31 83 -23 117 7 27 36 34 54 12z m-1837
-27 c39 -21 16 -83 -36 -96 -63 -16 -88 34 -41 81 27 27 46 31 77 15z m1328
-33 c11 -31 12 -43 2 -65 l-13 -27 -24 28 c-24 28 -30 60 -18 92 11 26 37 12
53 -28z m-2029 1 c0 -46 -19 -110 -31 -103 -12 8 -11 51 2 98 12 46 29 48 29
5z m1818 6 c28 -19 29 -63 1 -98 -25 -31 -49 -33 -74 -6 -26 29 -24 79 4 102
28 22 40 23 69 2z m-1444 0 c67 -26 16 -121 -60 -112 -25 2 -29 8 -32 35 -5
53 46 95 92 77z m2820 -122 c-5 -15 -16 -27 -24 -27 -12 0 -15 13 -14 57 1 31
5 65 9 75 13 31 41 -70 29 -105z m-2198 63 c3 -14 4 -35 1 -48 -6 -20 -5 -20
7 -4 17 22 36 22 36 0 0 -38 -63 -103 -100 -103 -15 0 -12 38 3 43 6 3 2 6 -9
6 -35 1 -48 25 -35 63 24 68 84 94 97 43z m-912 -31 c27 -10 21 -80 -9 -110
-35 -35 -59 -28 -63 17 -2 27 3 44 23 68 30 35 27 33 49 25z m1280 -20 c21
-20 20 -83 -1 -106 -20 -22 -66 -24 -87 -2 -23 22 -20 74 6 101 25 27 60 30
82 7z m256 -53 c16 -32 12 -86 -9 -105 -17 -15 -20 -15 -34 -2 -20 21 -30 81
-17 106 14 25 46 26 60 1z m-1122 -47 c46 -32 13 -94 -51 -94 -66 0 -87 41
-42 85 28 29 61 32 93 9z m2531 2 c23 -28 11 -120 -17 -131 -41 -15 -78 76
-52 126 12 22 52 25 69 5z m-992 -28 c15 -19 23 -61 17 -85 -14 -52 -84 -27
-84 29 0 50 43 86 67 56z m1357 -17 c35 -38 41 -121 10 -121 -20 0 -54 60 -54
96 0 47 16 56 44 25z m-538 -22 c23 -26 27 -124 4 -124 -22 0 -60 64 -60 100
0 50 23 60 56 24z m-2882 -81 c8 -6 7 -11 -4 -18 -20 -13 -26 -13 -44 6 -16
15 -22 65 -9 77 3 4 15 -8 26 -26 11 -17 25 -35 31 -39z m1880 33 c27 -30 18
-91 -16 -111 -25 -13 -31 -13 -55 0 -21 12 -29 25 -31 50 -5 65 62 105 102 61z
m432 -2 c12 -14 18 -36 19 -71 0 -44 -3 -52 -23 -59 -36 -14 -72 28 -72 84 0
66 37 89 76 46z m925 -10 c49 -53 48 -109 -3 -109 -65 0 -98 133 -35 139 5 1
22 -13 38 -30z m-623 -11 c40 -43 42 -128 3 -128 -33 0 -51 11 -66 41 -39 75
10 143 63 87z m-2350 -44 c4 -25 -30 -57 -55 -52 -19 3 -29 38 -19 64 9 24 70
14 74 -12z m847 12 c25 -18 25 -78 0 -106 -24 -27 -80 -27 -95 -1 -17 33 -11
61 19 92 33 32 48 35 76 15z m-471 -10 c-5 -13 -46 -36 -64 -36 -22 0 -8 21
23 34 42 19 47 19 41 2z m-288 -30 c-10 -6 -31 -21 -46 -33 -32 -26 -55 -31
-43 -9 4 8 26 28 47 45 29 23 42 29 50 20 8 -8 6 -14 -8 -23z m432 -7 c3 -30
-2 -41 -24 -58 -49 -38 -108 -24 -102 25 4 35 60 76 98 72 21 -3 25 -9 28 -39z
m607 18 c22 -34 10 -84 -26 -102 -37 -20 -45 -19 -69 7 -26 28 -26 58 1 92 27
34 72 35 94 3z m-861 -36 c8 -12 -42 -71 -59 -71 -19 0 -28 35 -15 60 11 21
63 29 74 11z m-537 -48 c-3 -10 -5 -4 -5 12 0 17 2 24 5 18 2 -7 2 -21 0 -30z
m2844 -13 c25 -24 30 -37 27 -66 -2 -23 -10 -41 -21 -48 -27 -16 -77 45 -77
94 0 60 25 67 71 20z m227 -70 c38 -36 20 -120 -25 -120 -27 0 -57 112 -36
133 12 13 39 7 61 -13z m-2938 -71 c0 -14 -5 -19 -14 -16 -9 4 -16 -3 -19 -19
-5 -27 9 -33 16 -6 4 16 5 16 6 -1 1 -16 -24 -35 -34 -25 -9 8 13 63 24 61 6
-2 11 4 11 12 0 8 2 15 5 15 3 0 5 -9 5 -21z m2089 -5 c27 -34 27 -78 1 -104
-41 -41 -90 -9 -90 58 0 72 49 97 89 46z m1077 1 c9 -23 -15 -45 -47 -45 -34
0 -34 2 -13 35 18 28 52 33 60 10z m-2711 -5 c9 -14 -6 -81 -16 -74 -5 3 -9
16 -9 28 0 16 -7 26 -21 29 -12 3 -18 10 -14 16 8 14 52 14 60 1z m285 -20
c17 -31 4 -40 -55 -40 -62 0 -74 11 -45 40 27 27 85 27 100 0z m2524 4 c9 -23
7 -64 -3 -64 -9 0 -21 34 -21 63 0 21 16 22 24 1z m-2780 -40 c9 -22 -3 -32
-14 -14 -12 19 -12 30 -1 30 5 0 12 -7 15 -16z m481 -4 c8 -13 -25 -13 -45 0
-12 8 -9 10 12 10 15 0 30 -4 33 -10z m-159 -41 l12 -34 3 30 c4 30 4 30 17 8
13 -24 3 -58 -22 -76 -14 -9 -59 1 -68 16 -13 21 -9 65 8 82 22 22 35 15 50
-26z m1594 -13 c0 -15 -42 -26 -71 -19 -25 7 -20 24 11 40 27 13 60 1 60 -21z
m308 22 c-3 -7 -20 -14 -39 -16 -32 -2 -33 -1 -15 13 24 18 59 20 54 3z m398
-55 c7 -58 -2 -67 -36 -33 -24 24 -25 48 -4 79 21 30 31 18 40 -46z m-3011 3
c-10 -25 -22 -46 -26 -46 -13 0 -11 9 12 57 27 56 36 48 14 -11z m3166 -3 c19
-50 23 -93 8 -94 -30 -3 -45 3 -61 23 -22 25 -23 56 -1 80 23 26 42 22 54 -9z
m-1859 -40 c23 -21 23 -55 -1 -77 -45 -41 -104 10 -75 66 17 32 48 37 76 11z
m-1012 -78 c-9 -44 -15 -55 -31 -55 -11 0 -19 7 -20 18 -1 9 -6 1 -13 -18 -15
-47 -24 -60 -42 -60 -46 0 -63 86 -24 122 26 24 42 23 60 -4 14 -23 15 -22 20
16 6 44 30 62 31 24 0 -14 3 -17 6 -8 14 42 15 45 20 33 2 -7 -1 -37 -7 -68z
m2449 -14 c1 -16 -3 -21 -8 -15 -10 10 -14 37 -11 74 2 24 3 24 10 -5 4 -16 8
-41 9 -54z m-970 0 c1 -29 -1 -32 -14 -21 -8 7 -15 27 -15 45 0 67 28 45 29
-24z m509 49 c23 -14 32 -27 32 -47 0 -33 -26 -63 -56 -63 -45 0 -72 80 -38
114 20 20 22 20 62 -4z m596 -20 c3 -16 9 -43 12 -59 3 -16 1 -32 -5 -36 -27
-16 -84 51 -73 85 5 18 32 40 48 40 7 0 15 -13 18 -30z m-292 -84 c-9 -18 -11
-16 -11 19 0 33 1 37 10 21 8 -12 8 -25 1 -40z m-1695 -13 c-3 -10 -5 -2 -5
17 0 19 2 27 5 18 2 -10 2 -26 0 -35z m1257 6 c29 -23 33 -54 10 -87 -31 -45
-74 -18 -74 47 0 64 19 76 64 40z m-2294 -9 c0 -28 -26 -100 -35 -97 -17 6
-17 44 0 76 15 30 35 42 35 21z m510 -30 c0 -42 -14 -54 -25 -20 -5 17 9 60
20 60 3 0 5 -18 5 -40z m2720 -36 c0 -31 -15 -53 -27 -40 -4 3 -8 32 -10 64
l-4 57 20 -24 c12 -13 21 -37 21 -57z m318 18 c23 -70 2 -93 -43 -47 -27 26
-32 64 -13 83 21 21 41 9 56 -36z m-418 18 c24 -24 26 -63 5 -80 -15 -13 -61
-17 -71 -7 -10 10 -25 88 -19 98 11 16 64 10 85 -11z m-1360 -30 c26 -26 26
-72 -1 -96 -21 -19 -21 -18 -40 5 -21 26 -24 62 -9 92 13 24 25 24 50 -1z
m-1006 -26 c19 -7 21 -62 3 -85 -35 -47 -106 -17 -92 39 10 44 47 62 89 46z
m1967 -64 c15 -9 19 -22 19 -64 0 -57 -12 -72 -47 -59 -35 12 -53 36 -53 69 0
26 6 37 28 48 33 19 29 18 53 6z m-2543 -17 c-3 -45 3 -84 13 -78 6 4 8 20 4
38 -5 24 -4 28 4 17 16 -22 13 -45 -7 -70 l-19 -23 -21 21 c-36 36 -26 112 15
112 7 0 12 -8 11 -17z m1729 -65 c-3 -7 -5 -2 -5 12 0 14 2 19 5 13 2 -7 2
-19 0 -25z m1501 23 c18 -11 31 -72 21 -99 -11 -29 -34 -28 -64 3 -30 29 -32
58 -5 85 22 22 29 24 48 11z m41 -29 c0 -24 -1 -25 -9 -7 -12 28 -12 47 0 40
6 -3 10 -18 9 -33z m-380 9 c13 -24 17 -73 7 -89 -12 -20 -41 -14 -69 16 -44
46 -31 92 25 92 17 0 31 -7 37 -19z m-547 -18 c25 -23 25 -89 -1 -103 -29 -15
-56 -12 -82 8 -25 21 -30 71 -9 96 17 21 69 20 92 -1z m-2581 -49 c-12 -26
-30 -53 -40 -61 -11 -7 -22 -27 -26 -44 -4 -16 -12 -28 -18 -26 -16 5 -20 48
-7 81 9 25 14 28 40 23 27 -6 30 -3 46 39 9 24 19 42 21 40 3 -2 -5 -26 -16
-52z m2993 19 c13 -85 4 -102 -34 -61 -22 24 -25 49 -10 79 17 31 37 22 44
-18z m-2344 -1 c0 -16 -7 -37 -16 -48 -15 -18 -15 -18 -10 6 3 14 6 35 6 48 0
12 5 22 10 22 6 0 10 -13 10 -28z m1030 -18 c13 -33 2 -94 -18 -101 -19 -8
-42 23 -42 56 0 20 34 71 47 71 2 0 8 -12 13 -26z m-568 -11 c35 -31 16 -103
-27 -103 -22 0 -25 4 -25 38 0 78 16 98 52 65z m278 -23 c35 -35 25 -82 -23
-106 -28 -15 -32 -15 -56 4 -36 26 -39 65 -7 97 30 30 59 32 86 5z m-887 -3
c16 -11 16 -19 7 -64 -12 -55 -35 -72 -73 -52 -16 9 -18 18 -13 52 4 24 15 49
27 60 25 20 30 21 52 4z m1805 -22 c24 -52 2 -115 -39 -115 -56 0 -79 83 -33
119 35 28 58 26 72 -4z m-1903 -50 c-3 -31 -9 -54 -12 -52 -2 3 -1 31 2 62 4
31 10 54 12 51 3 -3 2 -30 -2 -61z m-89 41 c8 -8 14 -27 14 -43 0 -29 -34 -82
-45 -71 -7 6 5 128 12 128 2 0 11 -6 19 -14z m374 -80 c0 -12 -7 -31 -15 -42
-13 -17 -14 -15 -15 35 0 46 2 52 15 41 8 -7 15 -22 15 -34z m2907 16 c30 -19
40 -112 12 -112 -13 0 -39 62 -39 95 0 26 6 30 27 17z m-771 -25 c3 -13 4 -41
2 -63 -3 -33 -7 -39 -29 -42 -58 -7 -93 65 -54 108 26 29 73 27 81 -3z m401
-19 c13 -12 23 -30 23 -40 0 -28 -18 -58 -36 -58 -8 0 -17 -7 -20 -15 -4 -8
-14 -15 -24 -15 -25 0 -70 49 -70 76 0 28 25 54 51 54 10 0 19 5 19 10 0 18
33 11 57 -12z m181 16 c28 -8 55 -58 47 -85 -13 -40 -64 -46 -92 -10 -16 21
-16 74 -1 89 14 14 15 14 46 6z m-1326 -41 c22 -20 23 -70 1 -95 -22 -25 -79
-24 -93 1 -15 29 -12 72 7 93 20 22 61 23 85 1z m866 -79 c25 -17 31 -71 10
-92 -21 -21 -75 -15 -92 10 -46 65 17 128 82 82z m-3011 -26 c-3 -7 -5 -2 -5
12 0 14 2 19 5 13 2 -7 2 -19 0 -25z m2456 -2 c29 -22 33 -80 8 -105 -23 -23
-51 -27 -69 -9 -18 18 -15 88 5 110 19 21 32 22 56 4z m-1488 -10 c27 -19 24
-74 -4 -98 -28 -22 -50 -23 -79 -2 -26 18 -30 74 -6 98 19 20 64 21 89 2z
m826 -2 c21 -25 16 -81 -9 -106 -29 -30 -47 -12 -46 46 2 73 24 98 55 60z
m-1577 -20 c37 -37 31 -107 -10 -126 -24 -11 -29 -9 -50 15 -40 47 -27 127 21
127 13 0 31 -7 39 -16z m2507 -16 c2 -31 -2 -92 -7 -97 -10 -11 -34 25 -34 51
0 54 38 96 41 46z m-1425 -43 c18 -28 12 -76 -12 -96 -21 -17 -34 3 -34 53 0
69 18 86 46 43z m2519 -47 c6 -44 4 -58 -5 -58 -34 0 -55 91 -28 118 18 18 25
4 33 -60z m-2137 20 c17 -17 15 -69 -4 -96 -18 -26 -65 -30 -88 -6 -22 22 -20
70 4 94 22 22 69 27 88 8z m-1058 -32 c0 -19 -4 -38 -10 -41 -6 -4 -10 10 -10
34 0 23 5 41 10 41 6 0 10 -15 10 -34z m2527 -18 c28 -26 30 -69 4 -92 -19
-17 -20 -17 -30 3 -12 22 -15 111 -4 111 4 0 17 -10 30 -22z m367 1 c43 -34
26 -116 -23 -107 -23 5 -43 71 -31 103 12 30 20 31 54 4z m-3556 -57 c11 -33
0 -67 -27 -81 -17 -9 -22 -8 -32 10 -12 23 -6 74 12 95 15 18 36 7 47 -24z
m2942 -29 c0 -63 -1 -66 -17 -50 -20 19 -21 80 -3 102 7 8 14 15 16 15 2 0 4
-30 4 -67z m-1816 -5 c34 -49 7 -108 -49 -108 -61 0 -85 61 -40 105 30 31 69
32 89 3z m2676 3 c14 -26 13 -98 -2 -107 -18 -11 -38 26 -38 71 0 57 19 74 40
36z m-1508 -8 c26 -23 24 -78 -4 -97 -49 -34 -108 -7 -108 49 0 18 7 41 16 49
20 21 73 20 96 -1z m-338 -48 c34 -70 -30 -133 -92 -89 -38 27 -25 106 21 123
33 12 54 2 71 -34z m1450 23 c23 -32 20 -61 -10 -89 -25 -24 -26 -24 -40 -5
-14 20 -20 97 -7 109 13 14 42 6 57 -15z m-3300 -20 c22 -31 20 -91 -3 -119
l-20 -24 -21 21 c-29 28 -37 87 -16 119 20 31 40 32 60 3z m2511 -18 c25 -28
16 -81 -17 -100 -25 -13 -31 -13 -55 0 -40 22 -44 80 -8 108 28 22 55 20 80
-8z m473 -12 c22 -18 15 -76 -12 -93 -48 -32 -118 12 -100 63 16 46 72 61 112
30z m-2658 -75 c-11 -17 -11 -17 -6 0 3 10 7 31 7 45 l2 27 4 -27 c2 -15 -1
-35 -7 -45z m145 -34 c0 -62 -1 -64 -26 -67 -19 -2 -33 4 -48 24 -28 35 -27
63 4 96 20 22 30 26 48 19 20 -7 22 -15 22 -72z m3334 6 c0 -23 -2 -26 -9 -15
-5 8 -9 33 -9 55 1 35 2 37 9 15 4 -14 8 -38 9 -55z m-3059 25 c37 -37 14
-110 -35 -110 -26 0 -55 33 -55 63 0 27 30 67 51 67 11 0 28 -9 39 -20z m-141
-17 c-1 -41 -24 -98 -39 -98 -37 0 -37 68 0 105 27 27 40 25 39 -7z m832 7
c25 -14 26 -80 2 -102 -32 -28 -58 -30 -86 -7 -66 51 9 149 84 109z m2429 -70
c0 -5 -4 -10 -10 -10 -5 0 -10 5 -10 10 0 6 5 10 10 10 6 0 10 -4 10 -10z
m-1746 -32 c53 -75 -42 -153 -101 -84 l-23 27 0 -35 c0 -27 -4 -34 -14 -30
-21 8 -30 61 -16 95 15 35 30 38 30 7 1 -22 1 -22 12 -3 27 49 85 61 112 23z
m1093 11 c34 -13 43 -25 43 -64 0 -38 -16 -55 -51 -55 -59 0 -98 71 -60 109
24 24 29 25 68 10z m400 -60 c15 -31 1 -84 -23 -93 -45 -17 -79 54 -49 100 21
32 55 29 72 -7z m-3788 -45 c-14 -39 -22 -22 -14 28 7 38 9 40 16 20 5 -13 4
-33 -2 -48z m2958 38 c18 -25 16 -56 -8 -86 -39 -49 -99 -25 -99 40 0 66 69
96 107 46z m-2547 -4 c0 -36 -11 -68 -21 -62 -10 6 -12 45 -3 68 9 24 24 19
24 -6z m3138 9 c25 -29 24 -64 -2 -93 -20 -24 -28 -27 -43 -18 -25 16 -39 69
-25 99 13 27 52 34 70 12z m453 -37 c4 -76 0 -112 -11 -105 -5 3 -10 33 -10
66 0 33 4 59 10 59 6 0 10 -9 11 -20z m-1428 -24 c14 -41 -13 -96 -47 -96 -44
0 -61 64 -30 108 23 33 64 26 77 -12z m-619 -8 c32 -45 8 -118 -38 -118 -44 0
-58 42 -35 109 13 38 50 42 73 9z m-1219 -18 c30 -33 3 -100 -39 -100 -32 0
-46 19 -46 60 0 20 5 41 12 48 18 18 53 14 73 -8z m2466 -21 c44 -23 44 -100
0 -114 -22 -7 -59 9 -78 34 -40 52 19 112 78 80z m-2717 -15 c11 -29 6 -77
-11 -96 -34 -38 -40 -21 -22 62 11 51 22 63 33 34z m-964 -64 c0 -11 -4 -20
-10 -20 -5 0 -10 9 -10 20 0 11 5 20 10 20 6 0 10 -9 10 -20z m1635 -11 c19
-18 10 -81 -14 -100 -60 -49 -128 13 -90 82 18 35 75 45 104 18z m2359 -41 c4
-28 3 -48 -2 -48 -10 0 -22 47 -22 88 0 41 17 13 24 -40z m-1866 -10 c11 -23
10 -32 -3 -58 -17 -33 -50 -51 -75 -42 -51 18 -65 72 -29 111 30 32 89 26 107
-11z m-2066 -3 c-4 -26 -22 -35 -22 -12 0 10 18 37 26 37 1 0 -1 -11 -4 -25z
m3248 6 c25 -48 -3 -121 -47 -121 -27 0 -53 31 -53 63 0 60 75 103 100 58z
m-2755 -89 c-11 -44 -24 -5 -17 53 l6 50 9 -38 c5 -20 6 -50 2 -65z m2935 17
c0 -37 -4 -58 -10 -54 -11 7 -13 57 -4 93 10 36 14 26 14 -39z m940 -26 c0
-46 -23 -70 -41 -42 -13 21 -11 93 3 107 19 19 38 -13 38 -65z m-1711 31 c35
-33 3 -114 -46 -114 -22 0 -23 4 -23 63 0 35 3 67 7 70 9 9 44 -2 62 -19z
m1405 0 c37 -37 23 -123 -19 -116 -42 8 -59 68 -29 110 18 26 27 27 48 6z
m-1559 0 c47 -18 37 -113 -15 -134 -23 -10 -32 -9 -53 5 -21 14 -36 41 -37 67
0 3 12 20 26 37 25 31 46 37 79 25z m-1155 -24 c57 -57 -22 -158 -82 -103 -23
20 -24 80 -1 105 21 24 58 23 83 -2z m908 -12 c18 -18 15 -103 -4 -122 -12
-12 -20 -13 -35 -5 -42 22 -43 95 -2 127 21 15 26 15 41 0z m-1936 -16 c-16
-5 -15 -44 1 -62 10 -12 9 -12 -5 -1 -26 19 -21 90 5 74 8 -5 7 -8 -1 -11z
m3196 -8 c32 -22 30 -78 -3 -100 -16 -10 -34 -14 -50 -10 -22 6 -25 12 -25 47
0 73 30 97 78 63z m-2858 -44 c29 -29 35 -66 16 -95 -45 -68 -135 22 -96 96
14 25 54 25 80 -1z m3319 -83 c1 -28 -3 -46 -8 -42 -13 8 -25 91 -16 112 7 17
8 16 15 -2 5 -11 9 -42 9 -68z m465 -8 c-1 -13 -3 -28 -3 -34 -1 -5 -6 -3 -11
5 -11 18 -13 93 -3 104 9 9 21 -42 17 -75z m-2604 19 c38 -41 13 -118 -39
-118 -50 0 -68 85 -25 119 33 26 38 26 64 -1z m2002 5 c27 -24 24 -79 -7 -99
-41 -27 -94 3 -95 55 0 53 62 80 102 44z m560 -78 c9 -34 2 -70 -17 -85 -28
-23 -47 59 -24 101 14 27 31 20 41 -16z m-1358 4 c47 -37 26 -119 -31 -119
-27 0 -73 41 -73 65 0 20 19 57 34 67 19 13 42 9 70 -13z m-2124 -19 c27 -27
25 -66 -5 -95 -59 -60 -137 5 -89 73 14 21 45 40 67 41 4 1 16 -8 27 -19z
m1898 8 c33 -33 -2 -128 -47 -128 -25 0 -53 34 -53 65 0 52 68 95 100 63z
m-2319 -75 c1 -17 -3 -35 -9 -38 -6 -4 -10 17 -9 57 1 47 3 57 9 38 4 -14 8
-39 9 -57z m3775 25 c40 -57 -7 -141 -52 -96 -17 17 -15 84 4 102 21 21 30 20
48 -6z m-1690 -64 c0 -67 -17 -89 -54 -71 -52 26 -46 106 10 134 35 17 45 3
44 -63z m774 64 c7 -7 12 -29 12 -50 0 -68 -63 -103 -96 -53 -37 56 38 149 84
103z m671 -52 c13 -55 14 -66 1 -66 -5 0 -12 17 -15 38 -4 20 -9 45 -12 55 -2
9 0 17 5 17 5 0 15 -20 21 -44z m-2566 6 c54 -47 -19 -146 -80 -107 -49 33
-46 105 5 123 30 10 49 6 75 -16z m-1032 -95 c-11 -11 -16 14 -12 58 3 47 16
47 19 1 2 -27 -2 -54 -7 -59z m1649 33 c41 -41 10 -120 -47 -120 -61 0 -84 70
-38 115 29 30 58 32 85 5z m1351 -110 c-8 -21 -10 -16 -10 31 -1 31 2 59 7 63
11 12 14 -67 3 -94z m549 85 c19 -22 18 -92 -2 -111 -21 -21 -52 -11 -66 22
-17 35 -15 47 9 78 23 30 41 33 59 11z m-286 -16 c46 -36 27 -109 -29 -109
-56 0 -87 84 -43 114 29 21 40 20 72 -5z m-1904 -28 c16 -31 12 -76 -9 -95
-26 -24 -70 -17 -93 15 -16 21 -17 30 -8 54 14 37 26 45 67 45 22 0 36 -6 43
-19z m2390 -40 c21 -40 5 -111 -25 -111 -19 0 -45 39 -45 68 0 34 18 62 40 62
11 0 24 -9 30 -19z m-3820 -51 c0 -16 -4 -31 -9 -34 -5 -3 -8 12 -7 33 1 45
16 45 16 1z m665 16 c47 -72 -40 -149 -100 -90 -20 20 -19 73 2 96 24 27 79
24 98 -6z m3355 -63 c0 -35 -18 -63 -39 -63 -32 0 -42 71 -14 109 l16 24 19
-23 c10 -12 18 -33 18 -47z m-3690 10 c-1 -16 -7 -41 -14 -58 l-14 -30 -10 27
c-11 28 -8 52 11 76 16 20 27 14 27 -15z m1962 0 c27 -24 24 -78 -7 -108 -13
-14 -28 -25 -33 -25 -5 0 -13 30 -17 66 -5 51 -4 69 7 75 19 13 29 11 50 -8z
m628 -9 c13 -34 3 -72 -26 -90 -58 -39 -105 16 -69 81 15 29 24 35 52 35 27 0
35 -5 43 -26z m-986 -36 c22 -31 20 -81 -3 -109 l-20 -24 -22 22 c-29 28 -31
84 -4 113 23 25 30 25 49 -2z m-944 -68 c20 -20 26 -65 12 -86 -9 -13 -46 -34
-62 -34 -6 0 -22 11 -35 25 -29 28 -33 76 -9 99 22 22 70 20 94 -4z m2718 -63
c3 -37 0 -57 -8 -62 -31 -19 -54 71 -29 117 16 30 32 8 37 -55z m-3620 14 c5
-46 -5 -81 -23 -81 -12 0 -15 14 -15 61 0 52 2 60 18 57 11 -2 18 -14 20 -37z
m2972 -40 c0 -41 -5 -62 -15 -71 -37 -31 -54 54 -22 104 27 40 37 31 37 -33z
m185 34 c28 -27 30 -37 14 -68 -15 -28 -28 -37 -56 -37 -31 0 -53 26 -53 65 0
63 51 85 95 40z m-1553 -2 c40 -36 5 -123 -50 -123 -33 0 -62 27 -62 57 0 27
17 64 34 75 19 13 59 9 78 -9z m956 -26 c13 -27 2 -74 -21 -89 -24 -15 -56 -7
-76 18 -28 35 -26 50 8 85 24 23 34 27 53 20 13 -4 29 -20 36 -34z m-2195 -5
c22 -19 21 -61 -1 -87 -54 -65 -128 -15 -106 72 11 43 66 51 107 15z m1751 -8
c10 -53 -1 -89 -31 -103 -23 -10 -31 -9 -52 7 -57 42 -28 132 43 132 31 0 34
-3 40 -36z m-2314 15 c0 -5 5 -7 10 -4 6 3 10 2 10 -4 0 -16 -18 -22 -23 -9
-4 10 -7 11 -18 1 -21 -21 -34 -15 -14 7 20 22 35 26 35 9z m77 -41 c-3 -7 -5
-2 -5 12 0 14 2 19 5 13 2 -7 2 -19 0 -25z m1337 -9 c31 -24 35 -66 8 -99 -37
-46 -112 -16 -112 44 0 36 7 48 35 64 28 16 39 15 69 -9z m2525 -30 c17 -31 7
-99 -15 -99 -18 0 -34 40 -34 84 0 53 23 60 49 15z m-3930 0 c-15 -9 -32 -2
-24 11 3 5 13 6 21 3 12 -4 13 -8 3 -14z m4069 -39 c5 -87 -34 -97 -45 -11 -4
26 -1 46 7 56 22 26 35 11 38 -45z m-3968 -34 c0 -18 -7 -41 -15 -52 -13 -17
-14 -15 -15 32 0 28 3 54 6 57 13 13 24 -5 24 -37z m229 35 c10 -7 12 -21 6
-56 -3 -26 -9 -54 -12 -61 -14 -37 -63 8 -63 58 0 16 9 37 20 48 22 22 29 24
49 11z m3251 -21 c29 -25 31 -74 4 -95 -26 -20 -47 -18 -78 6 -28 22 -36 75
-14 97 18 18 62 14 88 -8z m-4455 -125 c41 -64 75 -122 75 -130 0 -25 -227
-170 -246 -157 -19 12 -154 219 -154 236 0 16 212 164 238 165 6 1 46 -51 87
-114z m4063 68 c2 -17 -4 -46 -12 -64 l-14 -34 -1 68 c-1 51 2 68 12 65 6 -3
13 -18 15 -35z m-698 -32 c0 -31 -6 -44 -30 -64 -43 -36 -70 -27 -70 25 0 48
14 76 43 87 36 14 57 -4 57 -48z m-1372 -1 c45 -42 19 -120 -40 -120 -34 0
-78 42 -78 75 0 56 75 84 118 45z m3047 -60 c-8 -39 -23 -63 -36 -54 -14 8
-11 112 4 117 22 8 39 -25 32 -63z m-311 35 c11 -42 -4 -105 -24 -105 -30 0
-40 57 -18 105 14 32 34 32 42 0z m-3081 -23 c24 -21 22 -77 -3 -102 -11 -11
-25 -20 -30 -20 -26 0 -70 32 -76 55 -19 75 51 118 109 67z m1223 -37 c13 -32
13 -39 -2 -70 -13 -28 -22 -35 -44 -35 -36 0 -55 24 -55 70 0 47 19 70 57 70
24 0 32 -6 44 -35z m1072 -47 c30 -64 -47 -141 -90 -88 -26 32 -22 57 12 92
35 35 60 33 78 -4z m-2894 -4 c16 -41 0 -104 -23 -90 -12 8 -15 88 -4 99 11
11 20 8 27 -9z m1476 -11 c16 -20 20 -36 16 -57 -12 -57 -70 -74 -105 -30 -26
34 -27 68 -1 94 28 28 64 25 90 -7z m1158 11 c24 -16 29 -53 12 -85 -8 -14
-21 -19 -49 -19 -31 0 -40 5 -49 25 -16 34 -15 46 4 73 18 26 50 28 82 6z
m-524 -30 c36 -36 2 -134 -47 -134 -31 0 -67 39 -67 72 0 58 77 100 114 62z
m982 -41 c21 -27 16 -61 -11 -88 -28 -29 -47 -31 -69 -9 -20 20 -20 63 0 92
18 27 61 29 80 5z m774 -39 c0 -36 -18 -74 -35 -74 -29 0 -31 83 -2 118 9 11
13 11 24 -4 7 -10 13 -28 13 -40z m140 9 c0 -56 -14 -87 -29 -63 -10 15 -4 63
11 93 14 27 18 20 18 -30z m-4930 -18 c11 -36 12 -49 3 -52 -7 -3 -10 -12 -7
-21 3 -9 -4 -1 -15 18 -23 39 -29 114 -9 108 7 -3 19 -26 28 -53z m1245 -98
c8 -62 -2 -74 -29 -35 -19 26 -21 80 -5 111 12 21 12 21 20 1 4 -12 10 -46 14
-77z m3203 20 c29 -60 -28 -119 -81 -84 -33 21 -42 62 -22 94 13 20 23 24 53
21 29 -2 40 -9 50 -31z m-3053 -2 c63 -62 0 -153 -76 -108 -65 39 -39 129 39
132 7 1 24 -10 37 -24z m1765 -6 c8 -29 -9 -91 -27 -97 -10 -3 -13 14 -13 63
0 57 2 66 17 63 9 -2 20 -15 23 -29z m-1225 -4 c34 -33 33 -77 -1 -104 -15
-12 -32 -21 -40 -21 -24 0 -74 51 -74 76 0 30 41 74 70 74 12 0 32 -11 45 -25z
m-1855 11 c0 -3 -4 -8 -10 -11 -5 -3 -10 -1 -10 4 0 6 5 11 10 11 6 0 10 -2
10 -4z m-76 -61 c-3 -20 -2 -35 2 -34 24 6 41 -13 36 -39 -4 -22 -3 -25 9 -16
23 19 51 13 46 -8 -5 -16 -3 -17 9 -7 25 20 29 0 5 -25 -15 -16 -19 -26 -12
-31 6 -3 9 -11 5 -16 -3 -5 -13 0 -22 11 -16 19 -50 27 -82 19 -12 -3 -15 9
-15 71 1 72 8 110 20 110 3 0 3 -16 -1 -35z m3877 -72 c-8 -14 -10 -5 -11 38
0 31 3 59 8 63 11 12 14 -82 3 -101z m284 81 c29 -31 31 -51 9 -82 -20 -29
-67 -29 -94 0 -24 26 -26 56 -4 86 21 30 59 28 89 -4z m-4060 4 c25 1 45 -16
38 -34 -7 -18 -31 -18 -77 1 -44 19 -51 51 -8 40 15 -4 36 -7 47 -7z m4742
-14 c8 -22 -10 -97 -24 -102 -14 -4 -19 72 -7 102 8 20 23 20 31 0z m-2199
-22 c32 -41 0 -122 -48 -122 -66 0 -83 121 -20 143 21 7 53 -2 68 -21z m836
12 c42 -41 2 -132 -52 -119 -55 13 -68 63 -27 108 29 30 56 34 79 11z m1180
-27 c14 -22 -13 -102 -34 -102 -19 0 -25 60 -10 99 11 29 27 31 44 3z m-3806
-79 l0 -63 -10 47 c-9 42 -6 78 5 78 3 0 4 -28 5 -62z m2144 35 c27 -24 24
-78 -7 -108 -29 -30 -55 -32 -86 -6 -31 25 -33 93 -4 115 27 20 74 20 97 -1z
m128 -69 c0 -47 -4 -73 -10 -69 -18 11 -12 145 7 145 2 0 3 -34 3 -76z m-2981
25 c-31 -27 -44 -24 -17 5 13 13 27 21 31 19 4 -3 -2 -13 -14 -24z m227 -17
c-10 -2 -22 0 -28 6 -6 6 0 7 19 4 21 -5 23 -7 9 -10z m3544 -7 c17 -21 16
-60 -4 -90 -25 -38 -41 -27 -38 26 5 78 16 95 42 64z m657 -68 c-5 -57 -19
-76 -42 -57 -20 16 -19 79 1 108 13 19 18 21 31 10 11 -9 14 -25 10 -61z
m-868 49 c20 -24 9 -77 -20 -98 -51 -38 -101 1 -85 65 10 40 81 62 105 33z
m-3712 -18 c-3 -8 -6 -5 -6 6 -1 11 2 17 5 13 3 -3 4 -12 1 -19z m3254 -9 c19
-37 -17 -129 -51 -129 -34 0 -52 69 -28 113 25 47 58 54 79 16z m-2755 -41 c4
-7 3 -8 -4 -4 -8 4 -12 0 -12 -11 -1 -27 -35 -67 -52 -60 -10 3 -13 15 -10 36
3 24 11 33 36 40 17 5 32 10 33 10 1 1 5 -4 9 -11z m604 2 c19 -10 40 -59 40
-96 0 -34 -41 -78 -67 -70 -41 13 -58 110 -27 154 17 24 27 27 54 12z m3680
-49 c0 -35 -19 -91 -31 -91 -12 0 -11 87 2 111 13 26 29 15 29 -20z m86 -25
c-8 -53 -26 -71 -26 -27 0 34 18 87 26 78 4 -3 3 -26 0 -51z m-2442 22 c20
-28 20 -77 1 -102 -19 -25 -68 -25 -95 -1 -29 26 -27 89 2 109 33 23 74 20 92
-6z m-2334 2 c0 -5 -4 -10 -10 -10 -5 0 -10 5 -10 10 0 6 5 10 10 10 6 0 10
-4 10 -10z m2027 -12 c28 -27 30 -67 3 -96 -42 -45 -120 -10 -120 53 0 60 71
86 117 43z m2037 1 c47 -37 29 -109 -28 -109 -58 0 -90 59 -55 103 25 32 47
34 83 6z m-2765 -15 c12 -15 21 -35 21 -44 0 -24 -34 -65 -47 -57 -12 7 -43
91 -43 114 0 23 48 14 69 -13z m-2329 -4 c0 -5 -9 -10 -20 -10 -11 0 -20 5
-20 10 0 6 9 10 20 10 11 0 20 -4 20 -10z m217 -6 c-3 -3 -12 -4 -19 -1 -8 3
-5 6 6 6 11 1 17 -2 13 -5z m106 -1 c-7 -2 -19 -2 -25 0 -7 3 -2 5 12 5 14 0
19 -2 13 -5z m1208 -84 c-16 -15 -21 -16 -21 -6 0 8 7 20 15 27 8 7 16 20 16
29 1 9 4 5 6 -7 3 -16 -3 -31 -16 -43z m2193 29 c20 -29 20 -82 0 -102 -20
-21 -63 -20 -86 1 -23 20 -24 80 -1 105 23 25 68 23 87 -4z m1900 6 c16 -43
-6 -117 -33 -112 -21 4 -26 61 -11 99 14 32 34 38 44 13z m-1304 -4 c50 -27
44 -87 -11 -115 -26 -14 -33 -15 -40 -3 -19 30 -3 128 21 128 6 0 20 -5 30
-10z m1427 -86 c-2 -25 -12 -53 -21 -62 -15 -15 -16 -14 -16 14 0 39 19 94 32
94 7 0 9 -18 5 -46z m-1699 14 c15 -15 16 -102 2 -129 -24 -44 -80 -8 -80 51
0 25 8 45 25 64 27 29 36 31 53 14z m-1323 -23 c29 -28 34 -85 10 -105 -41
-34 -115 7 -115 63 0 64 60 88 105 42z m2060 -45 c-10 -50 -23 -70 -46 -70
-44 0 -37 93 9 128 25 19 45 -12 37 -58z m-1365 0 c24 -24 26 -77 3 -102 -37
-41 -113 -6 -113 54 0 35 32 68 65 68 14 0 34 -9 45 -20z m-1125 -15 c55 -55
14 -144 -54 -116 -27 12 -51 47 -51 75 0 23 40 66 61 66 11 0 31 -11 44 -25z
m3157 8 c24 -22 24 -77 -2 -103 -26 -26 -38 -25 -67 2 -31 29 -30 71 3 97 32
25 42 26 66 4z m-502 -35 c22 -40 -2 -82 -48 -86 -42 -4 -62 12 -62 51 0 67
78 92 110 35z m275 -83 c29 -28 31 -51 9 -83 -21 -30 -59 -28 -89 4 -29 31
-32 60 -8 86 23 25 59 23 88 -7z m-2073 -25 c24 -25 29 -36 24 -58 -15 -61
-80 -81 -121 -36 -32 34 -32 68 0 99 32 33 60 31 97 -5z m687 10 c30 -16 46
-65 31 -99 -28 -68 -120 -37 -120 41 0 53 45 82 89 58z m637 -35 c22 -34 4
-78 -38 -96 -39 -16 -62 -2 -66 40 -4 35 11 58 43 71 33 14 44 11 61 -15z
m1449 -112 c-3 -24 -10 -43 -15 -43 -6 0 -21 18 -34 39 -14 21 -29 41 -34 42
-5 2 -12 14 -16 25 -6 18 1 25 41 45 l48 24 8 -45 c5 -25 6 -64 2 -87z m-214
65 c-8 -28 -9 -30 -10 -8 -1 34 12 80 17 58 2 -9 -1 -31 -7 -50z m-1505 7 c7
-26 -19 -110 -37 -121 -22 -13 -41 20 -36 64 8 70 60 110 73 57z m586 -60 c-4
-35 -11 -58 -17 -55 -12 6 -10 56 5 94 15 41 19 29 12 -39z m726 33 c33 -33
-3 -140 -42 -125 -39 15 -40 82 -1 120 20 20 27 21 43 5z m104 -54 c-3 -60 -9
-77 -22 -69 -11 7 -13 67 -4 103 11 41 29 18 26 -34z m-3104 -57 c-4 -47 -19
-39 -44 23 -27 68 -20 84 18 41 22 -24 28 -41 26 -64z m-279 37 c12 -15 21
-39 21 -54 0 -15 -9 -39 -21 -54 -41 -52 -102 -20 -102 54 0 74 61 106 102 54z
m-601 -9 c-1 -14 -6 -25 -10 -25 -4 0 -8 11 -8 25 0 14 4 25 10 25 5 0 9 -11
8 -25z m292 -17 c23 -38 26 -96 7 -123 -21 -27 -62 -13 -76 26 -34 99 21 175
69 97z m1634 6 c49 -49 19 -134 -42 -119 -58 13 -82 85 -42 125 27 27 52 25
84 -6z m1460 -9 c23 -24 29 -55 15 -81 -10 -19 -21 -24 -50 -24 -59 0 -90 60
-52 102 20 22 66 24 87 3z m-996 -87 c20 -26 18 -90 -4 -112 -24 -24 -80 -20
-98 6 -21 29 -20 77 1 100 19 21 85 25 101 6z m-899 -24 c28 -35 26 -69 -4
-99 -28 -29 -36 -30 -74 -10 -30 15 -56 68 -44 89 30 54 88 63 122 20z m1648
-31 c-3 -10 -5 -2 -5 17 0 19 2 27 5 18 2 -10 2 -26 0 -35z m518 -8 c29 -28
32 -61 8 -87 -23 -25 -56 -22 -87 8 -30 31 -33 59 -9 86 23 25 59 23 88 -7z
m355 -7 c0 -25 -21 -88 -29 -88 -4 0 -4 23 2 50 5 28 14 50 18 50 5 0 9 -6 9
-12z m-82 -79 c3 -66 -11 -94 -33 -65 -18 24 -19 52 -4 95 16 47 34 32 37 -30z
m-1798 26 c41 -44 19 -125 -35 -125 -54 0 -88 88 -50 130 24 27 57 25 85 -5z
m353 -22 c4 -19 2 -33 -3 -33 -6 0 -10 17 -10 37 0 43 5 41 13 -4z m545 -33
c10 -62 -35 -110 -82 -89 -34 16 -43 52 -22 85 32 47 98 50 104 4z m-293 -1
c13 -40 -21 -119 -50 -119 -21 0 -37 47 -30 82 12 54 67 80 80 37z m-2036 -56
c33 -73 -16 -151 -70 -110 -44 34 -51 96 -14 132 21 21 28 23 48 14 14 -6 30
-22 36 -36z m2600 13 c20 -24 9 -69 -21 -86 -25 -13 -31 -13 -55 0 -16 9 -29
24 -31 34 -14 70 62 107 107 52z m-2377 -13 c8 -10 18 -26 22 -37 7 -21 -10
-92 -25 -102 -20 -12 -59 7 -74 37 -37 70 29 157 77 102z m2628 -38 c32 -17
46 -51 36 -90 -8 -32 -52 -34 -90 -4 -43 34 -31 107 17 109 4 0 21 -7 37 -15z
m-3413 -32 c-3 -10 -5 -4 -5 12 0 17 2 24 5 18 2 -7 2 -21 0 -30z m1031 16
c35 -12 62 -48 62 -81 0 -36 -16 -51 -51 -51 -44 0 -79 41 -79 92 0 54 10 60
68 40z m2781 -65 c-8 -20 -13 -24 -16 -13 -2 8 2 29 8 45 8 20 13 24 16 13 2
-8 -2 -29 -8 -45z m-1421 34 c23 -23 7 -138 -20 -138 -4 0 -8 34 -8 75 0 75 5
86 28 63z m-48 -37 c11 -21 14 -100 4 -125 -9 -24 -41 -19 -60 9 -18 28 -14
74 11 112 19 28 31 29 45 4z m605 -79 c-4 -19 -10 -31 -15 -26 -5 5 -3 34 3
64 10 45 12 50 15 26 2 -16 1 -45 -3 -64z"/>
<path d="M10140 16208 c0 -74 5 -73 14 5 4 36 2 57 -4 57 -6 0 -10 -27 -10
-62z"/>
<path d="M10825 15848 c-29 -20 -71 -88 -54 -88 4 0 12 6 16 13 4 7 23 19 41
26 26 11 32 19 32 42 0 16 -1 29 -2 28 -2 0 -16 -10 -33 -21z"/>
<path d="M10855 15420 c-18 -30 43 -38 115 -16 42 14 43 15 14 15 -17 1 -51 4
-76 7 -31 4 -48 2 -53 -6z"/>
<path d="M9368 15660 c-18 -11 -52 -103 -45 -123 3 -6 10 9 17 35 7 26 23 59
36 73 24 26 21 31 -8 15z"/>
<path d="M11321 12954 c0 -11 3 -14 6 -6 3 7 2 16 -1 19 -3 4 -6 -2 -5 -13z"/>
<path d="M10715 12840 c-4 -12 -5 -24 -2 -27 3 -2 8 5 12 17 4 12 5 24 2 27
-3 2 -8 -5 -12 -17z"/>
<path d="M13602 17910 c0 -19 2 -27 5 -17 2 9 2 25 0 35 -3 9 -5 1 -5 -18z"/>
<path d="M12852 17905 c0 -16 2 -22 5 -12 2 9 2 23 0 30 -3 6 -5 -1 -5 -18z"/>
<path d="M6206 17902 c-3 -5 0 -47 6 -93 9 -60 14 -77 18 -59 4 14 12 24 19
22 6 -1 16 9 21 23 5 14 16 25 25 25 8 0 15 7 15 15 0 9 9 15 25 15 14 0 25 4
25 9 0 5 8 11 18 13 15 4 15 5 -3 15 -28 15 -161 27 -169 15z"/>
<path d="M6530 17903 c-8 -2 -22 -7 -30 -9 -12 -4 -12 -6 0 -14 8 -5 17 -7 20
-5 3 2 6 -8 7 -22 1 -20 -1 -23 -9 -12 -6 10 -7 7 -2 -11 4 -14 11 -27 15 -28
5 -2 7 -8 3 -13 -7 -12 5 -49 16 -49 11 0 24 122 15 149 -7 22 -10 23 -35 14z"/>
<path d="M5773 17854 c6 -60 22 -76 45 -48 9 12 25 24 34 27 10 3 20 17 24 31
3 14 13 27 22 29 10 3 -16 5 -57 6 l-74 1 6 -46z"/>
<path d="M5952 17885 c-11 -13 -9 -15 12 -15 18 0 24 4 20 15 -8 19 -15 18
-32 0z"/>
<path d="M5402 17840 c0 -19 2 -27 5 -17 2 9 2 25 0 35 -3 9 -5 1 -5 -18z"/>
<path d="M5394 17765 c-3 -13 -12 -29 -18 -34 -9 -8 -10 -26 -5 -68 5 -32 6
-74 3 -93 l-6 -35 17 30 c12 20 19 62 23 128 4 94 -1 123 -14 72z"/>
<path d="M5316 17617 c3 -10 9 -15 12 -12 3 3 0 11 -7 18 -10 9 -11 8 -5 -6z"/>
<path d="M9765 17119 c-4 -6 -5 -12 -2 -15 2 -3 7 2 10 11 7 17 1 20 -8 4z"/>
<path d="M5102 16974 c-31 -154 -63 -391 -82 -594 -14 -166 -14 -517 1 -639
10 -80 10 -106 1 -109 -7 -2 -9 -8 -6 -14 4 -6 7 -24 6 -39 0 -16 4 -29 9 -29
6 0 5 -9 -2 -21 -8 -17 -8 -23 2 -30 7 -4 17 -5 21 -3 4 3 8 -20 8 -50 0 -31
4 -56 9 -56 10 0 15 94 31 570 17 508 20 565 30 730 14 214 13 302 -3 324 -12
17 -15 13 -25 -40z"/>
<path d="M12347 16742 c3 -12 9 -25 14 -28 14 -8 11 10 -6 32 -13 18 -14 18
-8 -4z"/>
<path d="M12340 16640 c6 -11 15 -18 20 -15 5 3 11 -14 13 -37 l4 -43 1 48 c2
36 -2 47 -13 47 -8 0 -15 5 -15 10 0 6 -5 10 -10 10 -7 0 -7 -7 0 -20z"/>
<path d="M12406 16565 c-4 -19 -10 -33 -15 -31 -4 3 -12 -4 -19 -15 -11 -17
-8 -24 21 -52 18 -18 40 -36 50 -40 9 -3 17 -11 17 -17 0 -5 5 -10 12 -10 7 0
-7 19 -30 43 l-43 43 12 53 c6 29 9 55 6 57 -2 3 -8 -11 -11 -31z"/>
<path d="M9473 16390 c0 -36 2 -50 4 -32 2 17 2 47 0 65 -2 17 -4 3 -4 -33z"/>
<path d="M12520 16370 c0 -6 7 -10 15 -10 8 0 15 2 15 4 0 2 -7 6 -15 10 -8 3
-15 1 -15 -4z"/>
<path d="M12691 16124 c0 -11 3 -14 6 -6 3 7 2 16 -1 19 -3 4 -6 -2 -5 -13z"/>
<path d="M12638 16103 c6 -2 18 -2 25 0 6 3 1 5 -13 5 -14 0 -19 -2 -12 -5z"/>
<path d="M12580 16079 c0 -5 5 -7 10 -4 6 3 10 8 10 11 0 2 -4 4 -10 4 -5 0
-10 -5 -10 -11z"/>
<path d="M12686 15845 c4 -9 -2 -18 -17 -24 -24 -10 -24 -10 4 -10 22 -1 27 3
27 24 0 14 -4 25 -10 25 -5 0 -7 -7 -4 -15z"/>
<path d="M12710 15838 c0 -9 15 -13 49 -13 59 0 52 17 -9 22 -28 3 -40 0 -40
-9z"/>
<path d="M12841 15805 c6 -17 7 -51 4 -77 l-7 -48 -39 31 c-22 17 -42 29 -45
26 -3 -3 3 -10 14 -16 36 -19 59 -72 65 -150 3 -40 9 -76 12 -79 13 -14 24 25
17 63 -8 49 -8 136 1 191 6 34 3 46 -13 65 l-20 24 11 -30z"/>
<path d="M12902 15560 c0 -19 2 -27 5 -17 2 9 2 25 0 35 -3 9 -5 1 -5 -18z"/>
<path d="M12782 15380 c0 -14 2 -19 5 -12 2 6 2 18 0 25 -3 6 -5 1 -5 -13z"/>
<path d="M5072 15330 c0 -14 2 -19 5 -12 2 6 2 18 0 25 -3 6 -5 1 -5 -13z"/>
<path d="M12763 15270 c0 -30 2 -43 4 -27 2 15 2 39 0 55 -2 15 -4 2 -4 -28z"/>
<path d="M5050 15214 c0 -8 5 -12 10 -9 6 3 10 10 10 16 0 5 -4 9 -10 9 -5 0
-10 -7 -10 -16z"/>
<path d="M5052 14980 c0 -14 2 -19 5 -12 2 6 2 18 0 25 -3 6 -5 1 -5 -13z"/>
<path d="M12870 14971 c0 -5 5 -13 10 -16 6 -3 10 -2 10 4 0 5 -4 13 -10 16
-5 3 -10 2 -10 -4z"/>
<path d="M12763 14915 c0 -27 2 -38 4 -22 2 15 2 37 0 50 -2 12 -4 0 -4 -28z"/>
<path d="M9210 14931 c0 -6 4 -13 10 -16 6 -3 7 1 4 9 -7 18 -14 21 -14 7z"/>
<path d="M12710 14736 c0 -8 5 -18 10 -21 6 -3 10 1 10 9 0 8 -4 18 -10 21 -5
3 -10 -1 -10 -9z"/>
<path d="M5041 14654 c0 -11 3 -14 6 -6 3 7 2 16 -1 19 -3 4 -6 -2 -5 -13z"/>
<path d="M12744 14626 c-3 -7 -4 -38 -2 -67 l3 -54 10 68 c6 37 7 67 2 67 -4
0 -10 -6 -13 -14z"/>
<path d="M9115 14490 c-3 -5 1 -10 9 -10 9 0 16 5 16 10 0 6 -4 10 -9 10 -6 0
-13 -4 -16 -10z"/>
<path d="M12736 14492 c-2 -4 -1 -14 5 -22 7 -12 9 -10 9 8 0 23 -5 28 -14 14z"/>
<path d="M5004 13280 c0 -63 1 -89 3 -57 2 31 2 83 0 115 -2 31 -3 5 -3 -58z"/>
<path d="M12891 9724 c0 -11 3 -14 6 -6 3 7 2 16 -1 19 -3 4 -6 -2 -5 -13z"/>
<path d="M8725 9481 c-7 -12 22 -41 41 -41 8 0 14 5 14 11 0 13 -25 39 -39 39
-5 0 -12 -4 -16 -9z"/>
<path d="M8680 9462 c0 -4 7 -18 16 -31 15 -21 18 -22 26 -6 7 12 5 20 -9 30
-20 16 -33 19 -33 7z"/>
<path d="M13403 7594 c-7 -19 5 -573 14 -615 l5 -28 144 1 c154 1 154 1 134
54 -10 26 -10 26 13 11 16 -10 28 -12 34 -6 6 6 15 3 24 -8 11 -13 14 -36 11
-81 -3 -56 -7 -64 -28 -72 -14 -6 -27 -17 -30 -25 -5 -12 -31 -15 -148 -15
-79 0 -145 -2 -148 -5 -9 -9 19 -134 47 -214 l26 -74 -10 -200 c-6 -109 -13
-202 -16 -206 -2 -4 2 -68 10 -142 8 -74 21 -221 30 -327 9 -114 21 -208 30
-229 8 -19 15 -53 15 -75 0 -34 3 -39 18 -33 9 4 59 23 111 43 l94 36 -7 65
c-3 36 -6 87 -6 113 0 27 -6 53 -14 61 -23 22 -22 39 3 90 21 44 23 58 21 200
-3 240 -8 345 -15 357 -9 14 -8 345 1 372 4 14 9 16 19 8 20 -17 27 29 26 185
0 100 -5 153 -16 184 -18 53 -18 51 0 51 13 0 15 37 15 270 l0 270 -200 0
c-175 0 -201 -2 -207 -16z"/>
<path d="M13120 5770 c0 -11 5 -20 10 -20 6 0 10 9 10 20 0 11 -4 20 -10 20
-5 0 -10 -9 -10 -20z"/>
<path d="M13183 5231 c-22 -18 -48 -61 -37 -61 4 0 24 5 45 12 40 11 49 30 26
52 -11 11 -17 10 -34 -3z"/>
</g>
</svg>
